<svg id="Layer_1" data-name="Layer 1" xmlns="http://www.w3.org/2000/svg" viewBox="0 0 483.47 483.47"><title>add</title><path d="M637.73,305.93c.1,133-108.79,241.92-241.82,241.8S154.39,439.29,154.27,306.22c-.12-133.46,108.51-242.08,242-241.95C529.3,64.4,637.64,172.8,637.73,305.93ZM381,291H365.11c-26.09,0-52.17,0-78.26,0-4.84,0-9.12,1.16-11.52,5.47-3.21,5.78-3.06,12.14-.56,18.05,2.39,5.66,7.68,6.58,13.32,6.57,29.35-.08,58.69,0,88,0H381v5.53q0,44.22,0,88.45c0,4,.62,7.68,3.76,10.34,5.76,4.89,12.57,4.21,18.94,2.2,5.76-1.81,7.38-7,7.37-12.78q-.08-44.43,0-88.86V321h93.57c3.89,0,7.66-.4,10.47-3.5,5.26-5.81,4.48-12.74,2.45-19.23-1.86-5.95-7.19-7.37-13.16-7.35-29.48.12-59,.05-88.45.05H411c0-18.41,0-36.2,0-54,0-13.59.07-27.17,0-40.76-.06-8.28-4.75-12.8-13-12.89-1.09,0-2.17,0-3.26,0-9.31,0-13.73,4.42-13.74,13.74q0,27.51,0,55C381,264.87,381,277.63,381,291Z" transform="translate(-154.27 -64.27)" style="fill:#c4a963"/></svg>