<svg id="Layer_1" data-name="Layer 1" xmlns="http://www.w3.org/2000/svg" viewBox="0 0 499.81 690.23"><title>cornerTotal</title><polyline points="449.46 129.84 449.46 80.67 442.24 80.67" style="fill:none;stroke:#c4a963;stroke-miterlimit:10;stroke-width:2px"/><polyline points="442.24 125.22 442.24 55.39 449.46 55.39 449.46 62.61 380.63 62.61" style="fill:none;stroke:#c4a963;stroke-miterlimit:10;stroke-width:2px"/><polyline points="424.28 62.61 424.28 55.39 339.26 55.39" style="fill:none;stroke:#c4a963;stroke-miterlimit:10;stroke-width:2px"/><path d="M435.38,62.61V120a5.43,5.43,0,0,1-.69,2.75,4.74,4.74,0,0,1-6.05,2,4.86,4.86,0,0,1-3-4.55" style="fill:none;stroke:#c4a963;stroke-miterlimit:10;stroke-width:2px"/><path d="M442.24,69.24H383.63A5.14,5.14,0,0,0,378.41,74q0,.28,0,.57a4.13,4.13,0,0,0,4.46,4.35" style="fill:none;stroke:#c4a963;stroke-miterlimit:10;stroke-width:2px"/><line x1="435.38" y1="69.24" x2="413.21" y2="91.05" style="fill:none;stroke:#c4a963;stroke-miterlimit:10;stroke-width:2px"/><circle cx="371.48" cy="69.53" r="1.15" style="fill:none;stroke:#c4a963;stroke-miterlimit:10;stroke-width:2px"/><circle cx="364.62" cy="69.53" r="1.15" style="fill:none;stroke:#c4a963;stroke-miterlimit:10;stroke-width:2px"/><circle cx="357.64" cy="69.53" r="1.15" style="fill:none;stroke:#c4a963;stroke-miterlimit:10;stroke-width:2px"/><ellipse cx="380.63" cy="62.61" rx="1.15" ry="1.01" style="fill:none;stroke:#c4a963;stroke-miterlimit:10;stroke-width:2px"/><ellipse cx="339.26" cy="55.39" rx="1.15" ry="1.01" style="fill:none;stroke:#c4a963;stroke-miterlimit:10;stroke-width:2px"/><ellipse cx="442.24" cy="125.22" rx="1.01" ry="1.15" style="fill:none;stroke:#c4a963;stroke-miterlimit:10;stroke-width:2px"/><ellipse cx="449.46" cy="129.84" rx="1.01" ry="1.15" style="fill:none;stroke:#c4a963;stroke-miterlimit:10;stroke-width:2px"/><ellipse cx="425.61" cy="120.17" rx="1.01" ry="1.15" style="fill:none;stroke:#c4a963;stroke-miterlimit:10;stroke-width:2px"/><ellipse cx="382.87" cy="78.89" rx="1.15" ry="1.01" style="fill:none;stroke:#c4a963;stroke-miterlimit:10;stroke-width:2px"/><ellipse cx="380.37" cy="62.61" rx="1.15" ry="1.01" style="fill:none;stroke:#c4a963;stroke-miterlimit:10;stroke-width:2px"/><ellipse cx="413.21" cy="91.05" rx="1.15" ry="1.01" transform="translate(56.64 318.85) rotate(-45)" style="fill:none;stroke:#c4a963;stroke-miterlimit:10;stroke-width:2px"/><line x1="423.06" y1="98.66" x2="429.4" y2="83.44" style="fill:none;stroke:#c4a963;stroke-miterlimit:10;stroke-width:2px"/><line x1="420.78" y1="75" x2="406.1" y2="81.06" style="fill:none;stroke:#c4a963;stroke-miterlimit:10;stroke-width:2px"/><ellipse cx="423.06" cy="98.66" rx="1.15" ry="1.01" transform="translate(164.19 447.52) rotate(-66.55)" style="fill:none;stroke:#c4a963;stroke-miterlimit:10;stroke-width:2px"/><ellipse cx="429.4" cy="83.49" rx="1.15" ry="1.01" transform="translate(181.93 444.2) rotate(-66.55)" style="fill:none;stroke:#c4a963;stroke-miterlimit:10;stroke-width:2px"/><ellipse cx="406.1" cy="81.06" rx="1.15" ry="1.01" transform="translate(-4.49 134.93) rotate(-18.76)" style="fill:none;stroke:#c4a963;stroke-miterlimit:10;stroke-width:2px"/><ellipse cx="420.52" cy="75.1" rx="1.15" ry="1.01" transform="translate(3.33 166.92) rotate(-22.54)" style="fill:none;stroke:#c4a963;stroke-miterlimit:10;stroke-width:2px"/><circle cx="408.27" cy="96.23" r="2.76" style="fill:none;stroke:#c4a963;stroke-miterlimit:10;stroke-width:2px"/><line x1="421.25" y1="104.28" x2="420.03" y2="106.79" style="fill:none;stroke:#c4a963;stroke-miterlimit:10;stroke-width:2px"/><line x1="400.22" y1="83.31" x2="397.53" y2="84.45" style="fill:none;stroke:#c4a963;stroke-miterlimit:10;stroke-width:2px"/><ellipse cx="331.42" cy="55.39" rx="1.15" ry="1.01" style="fill:none;stroke:#c4a963;stroke-miterlimit:10;stroke-width:2px"/><ellipse cx="332.9" cy="55.38" rx="1.15" ry="1.01" style="fill:none;stroke:#c4a963;stroke-miterlimit:10;stroke-width:2px"/><line x1="333.04" y1="55.38" x2="331.31" y2="55.39" style="fill:none;stroke:#c4a963;stroke-miterlimit:10;stroke-width:2px"/><circle cx="435.09" cy="131.49" r="1.15" style="fill:none;stroke:#c4a963;stroke-miterlimit:10;stroke-width:2px"/><circle cx="435.09" cy="138.47" r="1.15" style="fill:none;stroke:#c4a963;stroke-miterlimit:10;stroke-width:2px"/><circle cx="435.09" cy="145.73" r="1.15" style="fill:none;stroke:#c4a963;stroke-miterlimit:10;stroke-width:2px"/><path d="M455.3,146.29s-5.17,1.16-5.84,7.6c0,0-1-5.64-6.14-7.6,0,0,5.42-2.58,6-7.07C449.32,139.22,450.24,145.11,455.3,146.29Z" style="fill:#c4a963"/><polyline points="50.2 129.84 50.2 80.67 57.43 80.67" style="fill:none;stroke:#c4a963;stroke-miterlimit:10;stroke-width:2px"/><polyline points="57.43 125.22 57.43 55.39 50.2 55.39 50.2 62.61 119.04 62.61" style="fill:none;stroke:#c4a963;stroke-miterlimit:10;stroke-width:2px"/><polyline points="75.39 62.61 75.39 55.39 160.4 55.39" style="fill:none;stroke:#c4a963;stroke-miterlimit:10;stroke-width:2px"/><path d="M64.29,62.61V120a5.43,5.43,0,0,0,.69,2.75,4.74,4.74,0,0,0,6.05,2,4.86,4.86,0,0,0,3-4.55" style="fill:none;stroke:#c4a963;stroke-miterlimit:10;stroke-width:2px"/><path d="M57.43,69.24H116A5.14,5.14,0,0,1,121.25,74q0,.28,0,.57a4.13,4.13,0,0,1-4.46,4.35" style="fill:none;stroke:#c4a963;stroke-miterlimit:10;stroke-width:2px"/><line x1="64.29" y1="69.24" x2="86.46" y2="91.05" style="fill:none;stroke:#c4a963;stroke-miterlimit:10;stroke-width:2px"/><circle cx="128.18" cy="69.53" r="1.15" style="fill:none;stroke:#c4a963;stroke-miterlimit:10;stroke-width:2px"/><circle cx="135.05" cy="69.53" r="1.15" style="fill:none;stroke:#c4a963;stroke-miterlimit:10;stroke-width:2px"/><circle cx="142.03" cy="69.53" r="1.15" style="fill:none;stroke:#c4a963;stroke-miterlimit:10;stroke-width:2px"/><ellipse cx="119.04" cy="62.61" rx="1.15" ry="1.01" style="fill:none;stroke:#c4a963;stroke-miterlimit:10;stroke-width:2px"/><ellipse cx="160.4" cy="55.39" rx="1.15" ry="1.01" style="fill:none;stroke:#c4a963;stroke-miterlimit:10;stroke-width:2px"/><ellipse cx="57.43" cy="125.22" rx="1.01" ry="1.15" style="fill:none;stroke:#c4a963;stroke-miterlimit:10;stroke-width:2px"/><ellipse cx="50.2" cy="129.84" rx="1.01" ry="1.15" style="fill:none;stroke:#c4a963;stroke-miterlimit:10;stroke-width:2px"/><ellipse cx="74.06" cy="120.17" rx="1.01" ry="1.15" style="fill:none;stroke:#c4a963;stroke-miterlimit:10;stroke-width:2px"/><ellipse cx="116.79" cy="78.89" rx="1.15" ry="1.01" style="fill:none;stroke:#c4a963;stroke-miterlimit:10;stroke-width:2px"/><ellipse cx="119.29" cy="62.61" rx="1.15" ry="1.01" style="fill:none;stroke:#c4a963;stroke-miterlimit:10;stroke-width:2px"/><ellipse cx="86.46" cy="91.05" rx="1.01" ry="1.15" transform="translate(-39.06 87.8) rotate(-45)" style="fill:none;stroke:#c4a963;stroke-miterlimit:10;stroke-width:2px"/><line x1="76.6" y1="98.66" x2="70.26" y2="83.44" style="fill:none;stroke:#c4a963;stroke-miterlimit:10;stroke-width:2px"/><line x1="78.88" y1="75" x2="93.56" y2="81.06" style="fill:none;stroke:#c4a963;stroke-miterlimit:10;stroke-width:2px"/><ellipse cx="76.6" cy="98.66" rx="1.01" ry="1.15" transform="translate(-32.94 38.63) rotate(-23.45)" style="fill:none;stroke:#c4a963;stroke-miterlimit:10;stroke-width:2px"/><ellipse cx="70.26" cy="83.49" rx="1.01" ry="1.15" transform="translate(-27.42 34.86) rotate(-23.45)" style="fill:none;stroke:#c4a963;stroke-miterlimit:10;stroke-width:2px"/><ellipse cx="93.56" cy="81.06" rx="1.01" ry="1.15" transform="translate(-13.28 143.58) rotate(-71.24)" style="fill:none;stroke:#c4a963;stroke-miterlimit:10;stroke-width:2px"/><ellipse cx="79.15" cy="75.1" rx="1.01" ry="1.15" transform="translate(-20.55 119.42) rotate(-67.46)" style="fill:none;stroke:#c4a963;stroke-miterlimit:10;stroke-width:2px"/><circle cx="91.4" cy="96.23" r="2.76" style="fill:none;stroke:#c4a963;stroke-miterlimit:10;stroke-width:2px"/><line x1="78.41" y1="104.28" x2="79.64" y2="106.79" style="fill:none;stroke:#c4a963;stroke-miterlimit:10;stroke-width:2px"/><line x1="99.44" y1="83.31" x2="102.13" y2="84.45" style="fill:none;stroke:#c4a963;stroke-miterlimit:10;stroke-width:2px"/><ellipse cx="168.25" cy="55.39" rx="1.15" ry="1.01" style="fill:none;stroke:#c4a963;stroke-miterlimit:10;stroke-width:2px"/><ellipse cx="166.77" cy="55.38" rx="1.15" ry="1.01" style="fill:none;stroke:#c4a963;stroke-miterlimit:10;stroke-width:2px"/><line x1="166.62" y1="55.38" x2="168.36" y2="55.39" style="fill:none;stroke:#c4a963;stroke-miterlimit:10;stroke-width:2px"/><circle cx="64.57" cy="131.49" r="1.15" style="fill:none;stroke:#c4a963;stroke-miterlimit:10;stroke-width:2px"/><circle cx="64.57" cy="138.47" r="1.15" style="fill:none;stroke:#c4a963;stroke-miterlimit:10;stroke-width:2px"/><circle cx="64.57" cy="145.73" r="1.15" style="fill:none;stroke:#c4a963;stroke-miterlimit:10;stroke-width:2px"/><path d="M44.36,146.29s5.17,1.16,5.84,7.6c0,0,1-5.64,6.14-7.6,0,0-5.42-2.58-6-7.07C50.35,139.22,49.42,145.11,44.36,146.29Z" style="fill:#c4a963"/></svg>