<svg id="Layer_1" data-name="Layer 1" xmlns="http://www.w3.org/2000/svg" viewBox="0 0 3349.45 534.41"><title>patron2</title><rect x="1" y="1.28" width="3167.68" height="533.13" style="fill:#3d4e66"/><path d="M75.51-38.52" transform="translate(1 0.85)" style="fill:none;stroke:#fff;stroke-miterlimit:10;stroke-width:2px"/><polyline points="1 65.59 59.94 15.65 59.94 533.12 59.94 0.85" style="fill:none;stroke:#9b8a6a;stroke-miterlimit:10;stroke-width:2px"/><line x1="120.53" y1="67.23" x2="59.94" y2="15.65" style="fill:none;stroke:#9b8a6a;stroke-miterlimit:10;stroke-width:2px"/><polyline points="1 241.62 59.94 291.56 120.53 241.62" style="fill:none;stroke:#9b8a6a;stroke-miterlimit:10;stroke-width:2px"/><polyline points="1 513.43 59.94 462.67 120.53 513.43" style="fill:none;stroke:#9b8a6a;stroke-miterlimit:10;stroke-width:2px"/><line x1="120.53" y1="0.85" x2="120.53" y2="533.12" style="fill:none;stroke:#9b8a6a;stroke-miterlimit:10;stroke-width:2px"/><path d="M1585.39,511.1" transform="translate(1 0.85)" style="fill:none;stroke:#9b8a6a;stroke-miterlimit:10;stroke-width:2px"/><line x1="1" y1="0.85" x2="1" y2="533.12" style="fill:none;stroke:#2c384a;stroke-miterlimit:10;stroke-width:2px"/><polyline points="120.53 65.59 179.47 15.65 179.47 533.12 179.47 0.85" style="fill:none;stroke:#9b8a6a;stroke-miterlimit:10;stroke-width:2px"/><line x1="240.06" y1="67.23" x2="179.47" y2="15.65" style="fill:none;stroke:#9b8a6a;stroke-miterlimit:10;stroke-width:2px"/><polyline points="120.53 241.62 179.47 291.56 240.06 241.62" style="fill:none;stroke:#9b8a6a;stroke-miterlimit:10;stroke-width:2px"/><polyline points="120.53 513.43 179.47 462.67 240.06 513.43" style="fill:none;stroke:#9b8a6a;stroke-miterlimit:10;stroke-width:2px"/><line x1="240.06" y1="0.85" x2="240.06" y2="533.12" style="fill:none;stroke:#9b8a6a;stroke-miterlimit:10;stroke-width:2px"/><line x1="120.53" y1="0.85" x2="120.53" y2="533.12" style="fill:none;stroke:#9b8a6a;stroke-miterlimit:10;stroke-width:2px"/><path d="M314.73-37.66" transform="translate(1 0.85)" style="fill:none;stroke:#9b8a6a;stroke-miterlimit:10;stroke-width:2px"/><polyline points="240.22 66.45 299.16 16.51 299.16 533.98 299.16 1.71" style="fill:none;stroke:#9b8a6a;stroke-miterlimit:10;stroke-width:2px"/><line x1="359.75" y1="68.09" x2="299.16" y2="16.51" style="fill:none;stroke:#9b8a6a;stroke-miterlimit:10;stroke-width:2px"/><polyline points="240.22 242.48 299.16 292.42 359.75 242.48" style="fill:none;stroke:#9b8a6a;stroke-miterlimit:10;stroke-width:2px"/><polyline points="240.22 514.3 299.16 463.54 359.75 514.3" style="fill:none;stroke:#9b8a6a;stroke-miterlimit:10;stroke-width:2px"/><line x1="359.75" y1="1.71" x2="359.75" y2="533.98" style="fill:none;stroke:#9b8a6a;stroke-miterlimit:10;stroke-width:2px"/><line x1="240.22" y1="1.71" x2="240.22" y2="533.98" style="fill:none;stroke:#9b8a6a;stroke-miterlimit:10;stroke-width:2px"/><polyline points="359.75 66.45 418.69 16.51 418.69 533.98 418.69 1.71" style="fill:none;stroke:#9b8a6a;stroke-miterlimit:10;stroke-width:2px"/><line x1="479.28" y1="68.09" x2="418.69" y2="16.51" style="fill:none;stroke:#9b8a6a;stroke-miterlimit:10;stroke-width:2px"/><polyline points="359.75 242.48 418.69 292.42 479.28 242.48" style="fill:none;stroke:#9b8a6a;stroke-miterlimit:10;stroke-width:2px"/><polyline points="359.75 514.3 418.69 463.54 479.28 514.3" style="fill:none;stroke:#9b8a6a;stroke-miterlimit:10;stroke-width:2px"/><line x1="479.28" y1="1.71" x2="479.28" y2="533.98" style="fill:none;stroke:#9b8a6a;stroke-miterlimit:10;stroke-width:2px"/><line x1="359.75" y1="1.71" x2="359.75" y2="533.98" style="fill:none;stroke:#9b8a6a;stroke-miterlimit:10;stroke-width:2px"/><path d="M553.79-38.73" transform="translate(1 0.85)" style="fill:none;stroke:#9b8a6a;stroke-miterlimit:10;stroke-width:2px"/><polyline points="479.28 65.38 538.22 15.44 538.22 532.9 538.22 0.64" style="fill:none;stroke:#9b8a6a;stroke-miterlimit:10;stroke-width:2px"/><line x1="598.81" y1="67.02" x2="538.22" y2="15.44" style="fill:none;stroke:#9b8a6a;stroke-miterlimit:10;stroke-width:2px"/><polyline points="479.28 241.41 538.22 291.35 598.81 241.41" style="fill:none;stroke:#9b8a6a;stroke-miterlimit:10;stroke-width:2px"/><polyline points="479.28 513.22 538.22 462.46 598.81 513.22" style="fill:none;stroke:#9b8a6a;stroke-miterlimit:10;stroke-width:2px"/><line x1="598.81" y1="0.64" x2="598.81" y2="532.9" style="fill:none;stroke:#9b8a6a;stroke-miterlimit:10;stroke-width:2px"/><line x1="479.28" y1="0.64" x2="479.28" y2="532.9" style="fill:none;stroke:#9b8a6a;stroke-miterlimit:10;stroke-width:2px"/><polyline points="598.81 65.38 657.75 15.44 657.75 532.9 657.75 0.64" style="fill:none;stroke:#9b8a6a;stroke-miterlimit:10;stroke-width:2px"/><line x1="718.34" y1="67.02" x2="657.75" y2="15.44" style="fill:none;stroke:#9b8a6a;stroke-miterlimit:10;stroke-width:2px"/><polyline points="598.81 241.41 657.75 291.35 718.34 241.41" style="fill:none;stroke:#9b8a6a;stroke-miterlimit:10;stroke-width:2px"/><polyline points="598.81 513.22 657.75 462.46 718.34 513.22" style="fill:none;stroke:#9b8a6a;stroke-miterlimit:10;stroke-width:2px"/><line x1="718.34" y1="0.64" x2="718.34" y2="532.9" style="fill:none;stroke:#9b8a6a;stroke-miterlimit:10;stroke-width:2px"/><line x1="598.81" y1="0.64" x2="598.81" y2="532.9" style="fill:none;stroke:#9b8a6a;stroke-miterlimit:10;stroke-width:2px"/><path d="M793-37.87" transform="translate(1 0.85)" style="fill:none;stroke:#9b8a6a;stroke-miterlimit:10;stroke-width:2px"/><polyline points="718.5 66.24 777.44 16.3 777.44 533.76 777.44 1.5" style="fill:none;stroke:#9b8a6a;stroke-miterlimit:10;stroke-width:2px"/><line x1="838.03" y1="67.88" x2="777.44" y2="16.3" style="fill:none;stroke:#9b8a6a;stroke-miterlimit:10;stroke-width:2px"/><polyline points="718.5 242.27 777.44 292.21 838.03 242.27" style="fill:none;stroke:#9b8a6a;stroke-miterlimit:10;stroke-width:2px"/><polyline points="718.5 514.08 777.44 463.32 838.03 514.08" style="fill:none;stroke:#9b8a6a;stroke-miterlimit:10;stroke-width:2px"/><line x1="838.03" y1="1.5" x2="838.03" y2="533.76" style="fill:none;stroke:#9b8a6a;stroke-miterlimit:10;stroke-width:2px"/><line x1="718.5" y1="1.5" x2="718.5" y2="533.76" style="fill:none;stroke:#9b8a6a;stroke-miterlimit:10;stroke-width:2px"/><polyline points="838.03 66.24 896.97 16.3 896.97 533.76 896.97 1.5" style="fill:none;stroke:#9b8a6a;stroke-miterlimit:10;stroke-width:2px"/><line x1="957.56" y1="67.88" x2="896.97" y2="16.3" style="fill:none;stroke:#9b8a6a;stroke-miterlimit:10;stroke-width:2px"/><polyline points="838.03 242.27 896.97 292.21 957.56 242.27" style="fill:none;stroke:#9b8a6a;stroke-miterlimit:10;stroke-width:2px"/><polyline points="838.03 514.08 896.97 463.32 957.56 514.08" style="fill:none;stroke:#9b8a6a;stroke-miterlimit:10;stroke-width:2px"/><line x1="957.56" y1="1.5" x2="957.56" y2="533.76" style="fill:none;stroke:#9b8a6a;stroke-miterlimit:10;stroke-width:2px"/><line x1="838.03" y1="1.5" x2="838.03" y2="533.76" style="fill:none;stroke:#9b8a6a;stroke-miterlimit:10;stroke-width:2px"/><path d="M1032.07-38.72" transform="translate(1 0.85)" style="fill:none;stroke:#9b8a6a;stroke-miterlimit:10;stroke-width:2px"/><polyline points="957.56 65.39 1016.5 15.45 1016.5 532.91 1016.5 0.65" style="fill:none;stroke:#9b8a6a;stroke-miterlimit:10;stroke-width:2px"/><line x1="1077.09" y1="67.03" x2="1016.5" y2="15.45" style="fill:none;stroke:#9b8a6a;stroke-miterlimit:10;stroke-width:2px"/><polyline points="957.56 241.42 1016.5 291.36 1077.09 241.42" style="fill:none;stroke:#9b8a6a;stroke-miterlimit:10;stroke-width:2px"/><polyline points="957.56 513.23 1016.5 462.47 1077.09 513.23" style="fill:none;stroke:#9b8a6a;stroke-miterlimit:10;stroke-width:2px"/><line x1="1077.09" y1="0.65" x2="1077.09" y2="532.91" style="fill:none;stroke:#9b8a6a;stroke-miterlimit:10;stroke-width:2px"/><line x1="957.56" y1="0.65" x2="957.56" y2="532.91" style="fill:none;stroke:#9b8a6a;stroke-miterlimit:10;stroke-width:2px"/><polyline points="1077.09 65.39 1136.03 15.45 1136.03 532.91 1136.03 0.65" style="fill:none;stroke:#9b8a6a;stroke-miterlimit:10;stroke-width:2px"/><line x1="1196.62" y1="67.03" x2="1136.03" y2="15.45" style="fill:none;stroke:#9b8a6a;stroke-miterlimit:10;stroke-width:2px"/><polyline points="1077.09 241.42 1136.03 291.36 1196.62 241.42" style="fill:none;stroke:#9b8a6a;stroke-miterlimit:10;stroke-width:2px"/><polyline points="1077.09 513.23 1136.03 462.47 1196.62 513.23" style="fill:none;stroke:#9b8a6a;stroke-miterlimit:10;stroke-width:2px"/><line x1="1196.62" y1="0.65" x2="1196.62" y2="532.91" style="fill:none;stroke:#9b8a6a;stroke-miterlimit:10;stroke-width:2px"/><line x1="1077.09" y1="0.65" x2="1077.09" y2="532.91" style="fill:none;stroke:#9b8a6a;stroke-miterlimit:10;stroke-width:2px"/><path d="M1271.29-37.86" transform="translate(1 0.85)" style="fill:none;stroke:#9b8a6a;stroke-miterlimit:10;stroke-width:2px"/><polyline points="1196.78 66.25 1255.72 16.31 1255.72 533.77 1255.72 1.51" style="fill:none;stroke:#9b8a6a;stroke-miterlimit:10;stroke-width:2px"/><line x1="1316.31" y1="67.89" x2="1255.72" y2="16.31" style="fill:none;stroke:#9b8a6a;stroke-miterlimit:10;stroke-width:2px"/><polyline points="1196.78 242.28 1255.72 292.22 1316.31 242.28" style="fill:none;stroke:#9b8a6a;stroke-miterlimit:10;stroke-width:2px"/><polyline points="1196.78 514.09 1255.72 463.33 1316.31 514.09" style="fill:none;stroke:#9b8a6a;stroke-miterlimit:10;stroke-width:2px"/><line x1="1316.31" y1="1.51" x2="1316.31" y2="533.77" style="fill:none;stroke:#9b8a6a;stroke-miterlimit:10;stroke-width:2px"/><line x1="1196.78" y1="1.51" x2="1196.78" y2="533.77" style="fill:none;stroke:#9b8a6a;stroke-miterlimit:10;stroke-width:2px"/><polyline points="1316.31 66.25 1375.25 16.31 1375.25 533.77 1375.25 1.51" style="fill:none;stroke:#9b8a6a;stroke-miterlimit:10;stroke-width:2px"/><line x1="1435.84" y1="67.89" x2="1375.25" y2="16.31" style="fill:none;stroke:#9b8a6a;stroke-miterlimit:10;stroke-width:2px"/><polyline points="1316.31 242.28 1375.25 292.22 1435.84 242.28" style="fill:none;stroke:#9b8a6a;stroke-miterlimit:10;stroke-width:2px"/><polyline points="1316.31 514.09 1375.25 463.33 1435.84 514.09" style="fill:none;stroke:#9b8a6a;stroke-miterlimit:10;stroke-width:2px"/><line x1="1435.84" y1="1.51" x2="1435.84" y2="533.77" style="fill:none;stroke:#9b8a6a;stroke-miterlimit:10;stroke-width:2px"/><line x1="1316.31" y1="1.51" x2="1316.31" y2="533.77" style="fill:none;stroke:#9b8a6a;stroke-miterlimit:10;stroke-width:2px"/><path d="M1510.35-38.93" transform="translate(1 0.85)" style="fill:none;stroke:#9b8a6a;stroke-miterlimit:10;stroke-width:2px"/><polyline points="1435.84 65.18 1494.78 15.24 1494.78 532.7 1494.78 0.43" style="fill:none;stroke:#9b8a6a;stroke-miterlimit:10;stroke-width:2px"/><line x1="1555.37" y1="66.82" x2="1494.78" y2="15.24" style="fill:none;stroke:#9b8a6a;stroke-miterlimit:10;stroke-width:2px"/><polyline points="1435.84 241.21 1494.78 291.15 1555.37 241.21" style="fill:none;stroke:#9b8a6a;stroke-miterlimit:10;stroke-width:2px"/><polyline points="1435.84 513.02 1494.78 462.26 1555.37 513.02" style="fill:none;stroke:#9b8a6a;stroke-miterlimit:10;stroke-width:2px"/><line x1="1555.37" y1="0.43" x2="1555.37" y2="532.7" style="fill:none;stroke:#9b8a6a;stroke-miterlimit:10;stroke-width:2px"/><line x1="1435.84" y1="0.43" x2="1435.84" y2="532.7" style="fill:none;stroke:#9b8a6a;stroke-miterlimit:10;stroke-width:2px"/><polyline points="1555.37 65.18 1614.31 15.24 1614.31 532.7 1614.31 0.43" style="fill:none;stroke:#9b8a6a;stroke-miterlimit:10;stroke-width:2px"/><line x1="1674.9" y1="66.82" x2="1614.31" y2="15.24" style="fill:none;stroke:#9b8a6a;stroke-miterlimit:10;stroke-width:2px"/><polyline points="1555.37 241.21 1614.31 291.15 1674.9 241.21" style="fill:none;stroke:#9b8a6a;stroke-miterlimit:10;stroke-width:2px"/><polyline points="1555.37 513.02 1614.31 462.26 1674.9 513.02" style="fill:none;stroke:#9b8a6a;stroke-miterlimit:10;stroke-width:2px"/><line x1="1555.37" y1="0.43" x2="1555.37" y2="532.7" style="fill:none;stroke:#9b8a6a;stroke-miterlimit:10;stroke-width:2px"/><path d="M1749.41-39" transform="translate(1 0.85)" style="fill:none;stroke:#fff;stroke-miterlimit:10;stroke-width:2px"/><polyline points="1674.9 65.16 1733.84 15.22 1733.84 532.68 1733.84 0.41" style="fill:none;stroke:#9b8a6a;stroke-miterlimit:10;stroke-width:2px"/><line x1="1794.43" y1="66.8" x2="1733.84" y2="15.22" style="fill:none;stroke:#9b8a6a;stroke-miterlimit:10;stroke-width:2px"/><polyline points="1674.9 241.18 1733.84 291.13 1794.43 241.18" style="fill:none;stroke:#9b8a6a;stroke-miterlimit:10;stroke-width:2px"/><polyline points="1674.9 513 1733.84 462.24 1794.43 513" style="fill:none;stroke:#9b8a6a;stroke-miterlimit:10;stroke-width:2px"/><line x1="1794.43" y1="0.41" x2="1794.43" y2="532.68" style="fill:none;stroke:#9b8a6a;stroke-miterlimit:10;stroke-width:2px"/><path d="M3259.29,510.67" transform="translate(1 0.85)" style="fill:none;stroke:#9b8a6a;stroke-miterlimit:10;stroke-width:2px"/><line x1="1674.9" y1="0.41" x2="1674.9" y2="532.68" style="fill:none;stroke:#9b8a6a;stroke-miterlimit:10;stroke-width:2px"/><polyline points="1794.43 65.16 1853.37 15.22 1853.37 532.68 1853.37 0.41" style="fill:none;stroke:#9b8a6a;stroke-miterlimit:10;stroke-width:2px"/><line x1="1913.96" y1="66.8" x2="1853.37" y2="15.22" style="fill:none;stroke:#9b8a6a;stroke-miterlimit:10;stroke-width:2px"/><polyline points="1794.43 241.18 1853.37 291.13 1913.96 241.18" style="fill:none;stroke:#9b8a6a;stroke-miterlimit:10;stroke-width:2px"/><polyline points="1794.43 513 1853.37 462.24 1913.96 513" style="fill:none;stroke:#9b8a6a;stroke-miterlimit:10;stroke-width:2px"/><line x1="1913.96" y1="0.41" x2="1913.96" y2="532.68" style="fill:none;stroke:#9b8a6a;stroke-miterlimit:10;stroke-width:2px"/><line x1="1794.43" y1="0.41" x2="1794.43" y2="532.68" style="fill:none;stroke:#9b8a6a;stroke-miterlimit:10;stroke-width:2px"/><path d="M1988.63-38.1" transform="translate(1 0.85)" style="fill:none;stroke:#9b8a6a;stroke-miterlimit:10;stroke-width:2px"/><polyline points="1914.12 66.02 1973.06 16.08 1973.06 533.54 1973.06 1.27" style="fill:none;stroke:#9b8a6a;stroke-miterlimit:10;stroke-width:2px"/><line x1="2033.65" y1="67.66" x2="1973.06" y2="16.08" style="fill:none;stroke:#9b8a6a;stroke-miterlimit:10;stroke-width:2px"/><polyline points="1914.12 242.04 1973.06 291.99 2033.65 242.04" style="fill:none;stroke:#9b8a6a;stroke-miterlimit:10;stroke-width:2px"/><polyline points="1914.12 513.86 1973.06 463.1 2033.65 513.86" style="fill:none;stroke:#9b8a6a;stroke-miterlimit:10;stroke-width:2px"/><line x1="2033.65" y1="1.27" x2="2033.65" y2="533.54" style="fill:none;stroke:#9b8a6a;stroke-miterlimit:10;stroke-width:2px"/><line x1="1914.12" y1="1.27" x2="1914.12" y2="533.54" style="fill:none;stroke:#9b8a6a;stroke-miterlimit:10;stroke-width:2px"/><polyline points="2033.65 66.02 2092.59 16.08 2092.59 533.54 2092.59 1.27" style="fill:none;stroke:#9b8a6a;stroke-miterlimit:10;stroke-width:2px"/><line x1="2153.18" y1="67.66" x2="2092.59" y2="16.08" style="fill:none;stroke:#9b8a6a;stroke-miterlimit:10;stroke-width:2px"/><polyline points="2033.65 242.04 2092.59 291.99 2153.18 242.04" style="fill:none;stroke:#9b8a6a;stroke-miterlimit:10;stroke-width:2px"/><polyline points="2033.65 513.86 2092.59 463.1 2153.18 513.86" style="fill:none;stroke:#9b8a6a;stroke-miterlimit:10;stroke-width:2px"/><line x1="2153.18" y1="1.27" x2="2153.18" y2="533.54" style="fill:none;stroke:#9b8a6a;stroke-miterlimit:10;stroke-width:2px"/><line x1="2033.65" y1="1.27" x2="2033.65" y2="533.54" style="fill:none;stroke:#9b8a6a;stroke-miterlimit:10;stroke-width:2px"/><path d="M2227.69-39.17" transform="translate(1 0.85)" style="fill:none;stroke:#9b8a6a;stroke-miterlimit:10;stroke-width:2px"/><polyline points="2153.18 64.95 2212.12 15 2212.12 532.47 2212.12 0.2" style="fill:none;stroke:#9b8a6a;stroke-miterlimit:10;stroke-width:2px"/><line x1="2272.71" y1="66.58" x2="2212.12" y2="15" style="fill:none;stroke:#9b8a6a;stroke-miterlimit:10;stroke-width:2px"/><polyline points="2153.18 240.97 2212.12 290.92 2272.71 240.97" style="fill:none;stroke:#9b8a6a;stroke-miterlimit:10;stroke-width:2px"/><polyline points="2153.18 512.79 2212.12 462.03 2272.71 512.79" style="fill:none;stroke:#9b8a6a;stroke-miterlimit:10;stroke-width:2px"/><line x1="2272.71" y1="0.2" x2="2272.71" y2="532.47" style="fill:none;stroke:#9b8a6a;stroke-miterlimit:10;stroke-width:2px"/><line x1="2153.18" y1="0.2" x2="2153.18" y2="532.47" style="fill:none;stroke:#9b8a6a;stroke-miterlimit:10;stroke-width:2px"/><polyline points="2272.71 64.95 2331.65 15 2331.65 532.47 2331.65 0.2" style="fill:none;stroke:#9b8a6a;stroke-miterlimit:10;stroke-width:2px"/><line x1="2392.24" y1="66.58" x2="2331.65" y2="15" style="fill:none;stroke:#9b8a6a;stroke-miterlimit:10;stroke-width:2px"/><polyline points="2272.71 240.97 2331.65 290.92 2392.24 240.97" style="fill:none;stroke:#9b8a6a;stroke-miterlimit:10;stroke-width:2px"/><polyline points="2272.71 512.79 2331.65 462.03 2392.24 512.79" style="fill:none;stroke:#9b8a6a;stroke-miterlimit:10;stroke-width:2px"/><line x1="2392.24" y1="0.2" x2="2392.24" y2="532.47" style="fill:none;stroke:#9b8a6a;stroke-miterlimit:10;stroke-width:2px"/><line x1="2272.71" y1="0.2" x2="2272.71" y2="532.47" style="fill:none;stroke:#9b8a6a;stroke-miterlimit:10;stroke-width:2px"/><path d="M2466.91-38.31" transform="translate(1 0.85)" style="fill:none;stroke:#9b8a6a;stroke-miterlimit:10;stroke-width:2px"/><polyline points="2392.4 65.81 2451.34 15.86 2451.34 533.33 2451.34 1.06" style="fill:none;stroke:#9b8a6a;stroke-miterlimit:10;stroke-width:2px"/><line x1="2511.93" y1="67.44" x2="2451.34" y2="15.86" style="fill:none;stroke:#9b8a6a;stroke-miterlimit:10;stroke-width:2px"/><polyline points="2392.4 241.83 2451.34 291.77 2511.93 241.83" style="fill:none;stroke:#9b8a6a;stroke-miterlimit:10;stroke-width:2px"/><polyline points="2392.4 513.65 2451.34 462.89 2511.93 513.65" style="fill:none;stroke:#9b8a6a;stroke-miterlimit:10;stroke-width:2px"/><line x1="2511.93" y1="1.06" x2="2511.93" y2="533.33" style="fill:none;stroke:#9b8a6a;stroke-miterlimit:10;stroke-width:2px"/><line x1="2392.4" y1="1.06" x2="2392.4" y2="533.33" style="fill:none;stroke:#9b8a6a;stroke-miterlimit:10;stroke-width:2px"/><polyline points="2511.93 65.81 2570.87 15.86 2570.87 533.33 2570.87 1.06" style="fill:none;stroke:#9b8a6a;stroke-miterlimit:10;stroke-width:2px"/><line x1="2631.46" y1="67.44" x2="2570.87" y2="15.86" style="fill:none;stroke:#9b8a6a;stroke-miterlimit:10;stroke-width:2px"/><polyline points="2511.93 241.83 2570.87 291.77 2631.46 241.83" style="fill:none;stroke:#9b8a6a;stroke-miterlimit:10;stroke-width:2px"/><polyline points="2511.93 513.65 2570.87 462.89 2631.46 513.65" style="fill:none;stroke:#9b8a6a;stroke-miterlimit:10;stroke-width:2px"/><line x1="2631.46" y1="1.06" x2="2631.46" y2="533.33" style="fill:none;stroke:#9b8a6a;stroke-miterlimit:10;stroke-width:2px"/><line x1="2511.93" y1="1.06" x2="2511.93" y2="533.33" style="fill:none;stroke:#9b8a6a;stroke-miterlimit:10;stroke-width:2px"/><path d="M2706-39.16" transform="translate(1 0.85)" style="fill:none;stroke:#9b8a6a;stroke-miterlimit:10;stroke-width:2px"/><polyline points="2631.46 64.96 2690.4 15.01 2690.4 532.48 2690.4 0.21" style="fill:none;stroke:#9b8a6a;stroke-miterlimit:10;stroke-width:2px"/><line x1="2750.99" y1="66.59" x2="2690.4" y2="15.01" style="fill:none;stroke:#9b8a6a;stroke-miterlimit:10;stroke-width:2px"/><polyline points="2631.46 240.98 2690.4 290.93 2750.99 240.98" style="fill:none;stroke:#9b8a6a;stroke-miterlimit:10;stroke-width:2px"/><polyline points="2631.46 512.8 2690.4 462.04 2750.99 512.8" style="fill:none;stroke:#9b8a6a;stroke-miterlimit:10;stroke-width:2px"/><line x1="2750.99" y1="0.21" x2="2750.99" y2="532.48" style="fill:none;stroke:#9b8a6a;stroke-miterlimit:10;stroke-width:2px"/><line x1="2631.46" y1="0.21" x2="2631.46" y2="532.48" style="fill:none;stroke:#9b8a6a;stroke-miterlimit:10;stroke-width:2px"/><polyline points="2750.99 64.96 2809.93 15.01 2809.93 532.48 2809.93 0.21" style="fill:none;stroke:#9b8a6a;stroke-miterlimit:10;stroke-width:2px"/><line x1="2870.52" y1="66.59" x2="2809.93" y2="15.01" style="fill:none;stroke:#9b8a6a;stroke-miterlimit:10;stroke-width:2px"/><polyline points="2750.99 240.98 2809.93 290.93 2870.52 240.98" style="fill:none;stroke:#9b8a6a;stroke-miterlimit:10;stroke-width:2px"/><polyline points="2750.99 512.8 2809.93 462.04 2870.52 512.8" style="fill:none;stroke:#9b8a6a;stroke-miterlimit:10;stroke-width:2px"/><line x1="2870.52" y1="0.21" x2="2870.52" y2="532.48" style="fill:none;stroke:#9b8a6a;stroke-miterlimit:10;stroke-width:2px"/><line x1="2750.99" y1="0.21" x2="2750.99" y2="532.48" style="fill:none;stroke:#9b8a6a;stroke-miterlimit:10;stroke-width:2px"/><path d="M2945.19-38.3" transform="translate(1 0.85)" style="fill:none;stroke:#9b8a6a;stroke-miterlimit:10;stroke-width:2px"/><polyline points="2870.68 65.82 2929.62 15.88 2929.62 533.34 2929.62 1.07" style="fill:none;stroke:#9b8a6a;stroke-miterlimit:10;stroke-width:2px"/><line x1="2990.21" y1="67.45" x2="2929.62" y2="15.87" style="fill:none;stroke:#9b8a6a;stroke-miterlimit:10;stroke-width:2px"/><polyline points="2870.68 241.84 2929.62 291.79 2990.21 241.84" style="fill:none;stroke:#9b8a6a;stroke-miterlimit:10;stroke-width:2px"/><polyline points="2870.68 513.66 2929.62 462.9 2990.21 513.66" style="fill:none;stroke:#9b8a6a;stroke-miterlimit:10;stroke-width:2px"/><line x1="2990.21" y1="1.07" x2="2990.21" y2="533.34" style="fill:none;stroke:#9b8a6a;stroke-miterlimit:10;stroke-width:2px"/><line x1="2870.68" y1="1.07" x2="2870.68" y2="533.34" style="fill:none;stroke:#9b8a6a;stroke-miterlimit:10;stroke-width:2px"/><polyline points="2990.21 65.82 3049.15 15.88 3049.15 533.34 3049.15 1.07" style="fill:none;stroke:#9b8a6a;stroke-miterlimit:10;stroke-width:2px"/><line x1="3109.74" y1="67.45" x2="3049.15" y2="15.87" style="fill:none;stroke:#9b8a6a;stroke-miterlimit:10;stroke-width:2px"/><polyline points="2990.21 241.84 3049.15 291.79 3109.74 241.84" style="fill:none;stroke:#9b8a6a;stroke-miterlimit:10;stroke-width:2px"/><polyline points="2990.21 513.66 3049.15 462.9 3109.74 513.66" style="fill:none;stroke:#9b8a6a;stroke-miterlimit:10;stroke-width:2px"/><line x1="3109.74" y1="1.07" x2="3109.74" y2="533.34" style="fill:none;stroke:#9b8a6a;stroke-miterlimit:10;stroke-width:2px"/><line x1="2990.21" y1="1.07" x2="2990.21" y2="533.34" style="fill:none;stroke:#9b8a6a;stroke-miterlimit:10;stroke-width:2px"/><path d="M3184.25-39.37" transform="translate(1 0.85)" style="fill:none;stroke:#9b8a6a;stroke-miterlimit:10;stroke-width:2px"/><polyline points="3109.74 64.75 3168.68 14.8 3168.68 532.27 3168.68 0" style="fill:none;stroke:#9b8a6a;stroke-miterlimit:10;stroke-width:2px"/><line x1="3229.27" y1="66.38" x2="3168.68" y2="14.8" style="fill:none;stroke:#9b8a6a;stroke-miterlimit:10;stroke-width:2px"/><polyline points="3109.74 240.77 3168.68 290.71 3229.27 240.77" style="fill:none;stroke:#9b8a6a;stroke-miterlimit:10;stroke-width:2px"/><polyline points="3109.74 512.59 3168.68 461.83 3229.27 512.59" style="fill:none;stroke:#9b8a6a;stroke-miterlimit:10;stroke-width:2px"/><line x1="3229.27" x2="3229.27" y2="532.27" style="fill:none;stroke:#9b8a6a;stroke-miterlimit:10;stroke-width:2px"/><line x1="3109.74" x2="3109.74" y2="532.27" style="fill:none;stroke:#9b8a6a;stroke-miterlimit:10;stroke-width:2px"/><polyline points="3229.27 64.75 3288.21 14.8 3288.21 532.27 3288.21 0" style="fill:none;stroke:#9b8a6a;stroke-miterlimit:10;stroke-width:2px"/><line x1="3348.8" y1="66.38" x2="3288.21" y2="14.8" style="fill:none;stroke:#9b8a6a;stroke-miterlimit:10;stroke-width:2px"/><polyline points="3229.27 240.77 3288.21 290.71 3348.8 240.77" style="fill:none;stroke:#9b8a6a;stroke-miterlimit:10;stroke-width:2px"/><polyline points="3229.27 512.59 3288.21 461.83 3348.8 512.59" style="fill:none;stroke:#9b8a6a;stroke-miterlimit:10;stroke-width:2px"/><line x1="3229.27" x2="3229.27" y2="532.27" style="fill:none;stroke:#9b8a6a;stroke-miterlimit:10;stroke-width:2px"/></svg>