<svg id="Layer_1" data-name="Layer 1" xmlns="http://www.w3.org/2000/svg" viewBox="0 0 232.89 232.82"><title>barIcon</title><path d="M75.51-38.52" transform="translate(-40.46 -67.6)" style="fill:none;stroke:#fff;stroke-miterlimit:10"/><path d="M271.82,503.95" transform="translate(-40.46 -67.6)" style="fill:none"/><path d="M110.32,188c0-2,.11-3.65-.05-5.3a3.88,3.88,0,0,0-1.13-2.08q-6.29-6.45-12.68-12.8c-1.36-1.35-2.07-2.77-1.27-4.67s2.35-2.39,4.24-2.39q14.77,0,29.54,0c2,0,3.55.52,4.36,2.53s-.12,3.32-1.44,4.63c-3.8,3.8-7.48,7.73-11.39,11.42-1.77,1.67-2.73,3.38-2.37,5.82a22,22,0,0,1,0,2.84h149c.77,0,1.54,0,2.3,0,2.42.12,3.82,1.34,3.86,3.76.1,5.17.08,10.33,0,15.5,0,2.29-1.44,3.51-3.79,4v89h-7.73V211.16H215.2v-7.62h50.28v-7.73H48.42v7.56H191.73V211H52.14v89.26H44.46v-88.9c-3.35-1.19-4-2-4-5.45,0-4.33,0-8.66,0-13,0-3.8,1.24-5,5-5h64.8Zm-1.63-19.44,5.4,5.48,5.67-5.48Z" transform="translate(-40.46 -67.6)"/><path d="M174.4,102.58a20.33,20.33,0,0,1-1.58-2.41,3.9,3.9,0,0,1,3.58-5.49,35.21,35.21,0,0,1,7.52.07,5.8,5.8,0,0,1,3.57,2.36c1.1,1.71.22,3.48-1.51,5.19H213a8.47,8.47,0,0,0-.64-1,3.56,3.56,0,0,1-.77-4.23,4.17,4.17,0,0,1,3.87-2.42c1.88,0,3.77,0,5.66,0s4,.11,5.1,2.13.28,3.74-1.46,5.57h27c-.29-.49-.49-.87-.74-1.23-2-2.86-.55-6.12,3-6.39a47.31,47.31,0,0,1,7.74,0c3.84.33,4.82,3.56,2,7.87h6c3.58,0,3.58,0,3.58,3.49,0,4.12,0,4.12-4.05,4.12-1.89,0-3.78.08-5.65,0-1.51-.09-2,.53-1.88,2a4.84,4.84,0,0,1,0,1.25c-.52,3.38.41,5.58,3.74,7.45,5,2.81,7.37,8,7.61,13.51a117,117,0,0,1-1.09,18.11c-.39,3.47-2,4.49-5.43,4.52q-8.69.06-17.39,0c-3.4,0-4.72-1-5.35-4.36-1.32-7-2.2-14.12-.59-21.17a17,17,0,0,1,9.38-12.16,3.1,3.1,0,0,0,1.33-2.17c.2-1.79,0-3.63.08-5.44,0-1.09-.4-1.47-1.48-1.47q-14,0-28.07,0c-1.09,0-1.54.4-1.44,1.48a8.19,8.19,0,0,1,0,1.67c-.4,3.36.28,5.7,3.77,7.61,4.56,2.49,6.67,7.31,7.38,12.36A55.88,55.88,0,0,1,233,153c-.63,2.89-2.12,3.91-5.1,3.93q-8.9.07-17.8,0c-3.15,0-4.59-1.19-5.16-4.35-1.24-6.88-2.2-13.83-.69-20.76a17.35,17.35,0,0,1,9.53-12.54,4,4,0,0,0,.56-.28c.78-.55,1.11-8.06.33-8.58a2.69,2.69,0,0,0-1.4-.23c-9.15,0-18.29,0-27.44,0-1.36,0-2,.4-1.77,1.79a7,7,0,0,1,0,1.67c-.36,3.14.34,5.17,3.54,7.07,5.84,3.46,8,9.58,8,16.14a128.34,128.34,0,0,1-1.24,15.61c-.39,3.24-2.15,4.49-5.5,4.51q-8.48,0-17,0c-4,0-5.33-1.06-5.94-5-1-6.68-2.15-13.4-.55-20.15,1.33-5.62,4.22-10.12,9.67-12.62.25-.12.69-.26.7-.41.14-2.77.25-5.54.26-8.31a3.73,3.73,0,0,0-1.53-.31c-3.07,0-6.14,0-9.22,0-2.84,0-4.49-1.5-4.46-3.87s1.62-3.72,4.54-3.74S171.09,102.58,174.4,102.58Zm37.75,46.51c4.38,0,8.61,0,12.84-.06.35,0,.95-.79,1-1.25.28-4.09.82-8.22.54-12.28a14.82,14.82,0,0,0-2.65-6.88c-2.52-3.72-6.63-3.77-9.48-.3a13.54,13.54,0,0,0-2.32,4.37C210.33,138.06,211.68,143.44,212.15,149.09Zm45.67,0c1.68,0,3.35-.06,5,0,1.35.06,2-.29,2.09-1.82.12-3.06.59-6.11.63-9.17,0-3.92-.74-7.65-3.71-10.54-2.36-2.29-5.59-2.46-7.82-.11a14,14,0,0,0-3,4.89c-1.77,5.18-.59,10.49-.12,15.74,0,.37,1,.91,1.5.95C254.18,149.19,256,149.12,257.81,149.12Zm-77.67,0h0c1.53,0,3.07-.1,4.6,0,1.71.14,2.58-.35,2.65-2.22.1-3,.56-6,.57-9,0-3.53-.7-6.92-3.12-9.73-2.7-3.14-6.5-3.27-9.14-.08a14.14,14.14,0,0,0-2.49,4.53c-1.66,5.07-.33,10.22,0,15.32,0,.4,1.07,1,1.68,1C176.65,149.21,178.4,149.11,180.14,149.11Z" transform="translate(-40.46 -67.6)"/><path d="M94.28,129.57h8.33c0-11.76,0-23.4,0-35a10.84,10.84,0,0,1,6-9.87,2.63,2.63,0,0,0,1.6-2.77c-.09-3-.08-6,0-9,.09-4,1.42-5.26,5.32-5.26,4.54,0,9.08,0,13.62,0,3.07,0,4.49,1.45,4.51,4.5,0,3.35,0,6.7,0,10.06A2.13,2.13,0,0,0,135,84.44a11,11,0,0,1,6.37,10.09c.08,10.82-.06,21.64-.13,32.46,0,.81-.17,1.62-.3,2.69,2.13,0,4.14.07,6.14,0,1.56-.08,2.2.32,2.19,2.07-.05,5.67,0,5.67-5.69,5.67H51c-2.71,0-2.71,0-2.71-2.75,0-5,0-5,4.9-5h3.27c-.13-1.66-.34-3.15-.34-4.64,0-10,0-20,0-30a11.12,11.12,0,0,1,6.07-10.45,2.84,2.84,0,0,0,1.65-3c-.07-3.21,0-6.42,0-9.64,0-2.94,1.44-4.36,4.4-4.39q7.33-.06,14.67,0c2.75,0,4.14,1.38,4.2,4.13.08,3.42,0,6.84,0,10.27a2.34,2.34,0,0,0,1.43,2.45,10.92,10.92,0,0,1,6.33,9.9c.14,10.61,0,21.23,0,31.84A24,24,0,0,1,94.28,129.57ZM87,110.09c0-4.75,0-9.5,0-14.25,0-3.64-1.31-5-4.87-5q-6.81,0-13.62,0c-3.3,0-4.75,1.44-4.76,4.69q0,14.67,0,29.33c0,3.34,1.38,4.77,4.67,4.8q6.91.07,13.83,0c3.44,0,4.74-1.41,4.76-4.92C87,119.87,87,115,87,110.09Zm46.64.17q0-7.23,0-14.46c0-3.47-1.46-4.94-5-5q-6.81,0-13.62,0c-3.23,0-4.6,1.3-4.73,4.52-.08,2.09,0,4.19,0,6.28,0,7.68,0,15.36,0,23,0,3.62,1.38,5,4.94,5q6.6,0,13.2,0c3.79,0,5.19-1.44,5.19-5.18Q133.67,117.38,133.67,110.26ZM75.53,75.35c-4.55.09-4.08-.8-4.09,4.07,0,4.06-.5,3.81,3.8,3.8,4.78,0,4,.41,4.05-4.14S79.74,75.42,75.53,75.35Zm42.58,0c0,2.33,0,4.35,0,6.36,0,1.23.53,1.57,1.64,1.53,1.46-.06,2.93-.06,4.39,0,1.29.05,1.64-.51,1.67-1.75.17-6.19.2-6.19-6-6.14Z" transform="translate(-40.46 -67.6)"/><path d="M160.79,246.14v2.4c0,13.89,0,27.79,0,41.68,0,2.06.61,2.7,2.6,2.52a36.61,36.61,0,0,1,5.23,0,3.72,3.72,0,0,1,3.83,3.86,3.78,3.78,0,0,1-3.93,3.77q-11.52.08-23,0a3.82,3.82,0,0,1-4-3.92c0-2.16,1.55-3.65,4-3.73s4.87,0,7.46,0V246.24c-.73,0-1.47-.09-2.2-.1H134.52c-3.32,0-4.71-1.33-4.75-4.68q-.08-7.12,0-14.24c0-2.94,1.45-4.4,4.42-4.41q22.72-.06,45.45,0c3.05,0,4.41,1.51,4.44,4.62q.05,7.12,0,14.24c0,3-1.5,4.44-4.56,4.46-5.38,0-10.75,0-16.13,0Zm15.59-8c0-1.84-.12-3.57,0-5.29s-.59-2.19-2.27-2.18c-11.44.06-22.89,0-34.33,0-.68,0-1.36.06-2.08.1v7.33Z" transform="translate(-40.46 -67.6)"/><path d="M91.18,292.72c2.48,0,4.77,0,7.07,0,2.67.05,4.34,1.55,4.36,3.82s-1.82,3.84-4.35,3.85q-11.21,0-22.41,0c-2.64,0-4.24-1.54-4.25-3.87s1.57-3.74,4.31-3.8c2.29,0,4.59,0,7,0V246.14H80.72c-5.38,0-10.75,0-16.13,0-3.24,0-4.62-1.35-4.64-4.53q0-7.12,0-14.24c0-3.06,1.38-4.44,4.45-4.57.35,0,.7,0,1,0H108.8c4.1,0,5.38,1.28,5.39,5.36,0,4.47,0,8.94,0,13.41,0,3.2-1.42,4.57-4.64,4.58-6.07,0-12.14,0-18.37,0Zm15.13-54.6v-7.3H67.83v7.3Z" transform="translate(-40.46 -67.6)"/><path d="M222.79,246.14H210.58c-2.23,0-4.47,0-6.7,0-2.59,0-4.2-1.37-4.26-3.9q-.18-7.74,0-15.49c.05-2.53,1.7-3.86,4.48-3.94,2.3-.06,4.61,0,6.91,0h37.48c4.2,0,5.52,1.32,5.53,5.49s0,8.51,0,12.77c0,3.71-1.38,5.08-5,5.08-5.44,0-10.89,0-16.33,0-1.5,0-2.06.34-2.06,2q.09,21.36,0,42.71c0,1.42.37,2,1.88,1.95,1.88-.11,3.77-.06,5.65,0,2.55.07,4.07,1.51,4.11,3.78a3.77,3.77,0,0,1-4,3.87q-11.41.07-22.82,0c-2.51,0-4.05-1.55-4.07-3.83s1.5-3.76,4-3.83,4.85,0,7.43,0Zm-15.16-15.33v7.27H246v-7.27Z" transform="translate(-40.46 -67.6)"/><path d="M207.31,211h-7.61v-7.45h7.61Z" transform="translate(-40.46 -67.6)"/><path d="M71.73,98.75h7.44v7.47H71.73Z" transform="translate(-40.46 -67.6)"/><path d="M118.22,106.22v-7.4h7.5v7.4Z" transform="translate(-40.46 -67.6)"/></svg>