<svg id="Layer_1" data-name="Layer 1" xmlns="http://www.w3.org/2000/svg" viewBox="0 0 414.02 382.89"><title>cocktail</title><path d="M395.92,468.09h35.42v18.64H341.82V468.29h35c.1-1.88.24-3.3.24-4.72,0-33.2.05-66.41-.09-99.61a11.62,11.62,0,0,0-2.21-6.54q-57-74.68-114.14-149.21a33.83,33.83,0,0,1-2.37-3.26c-3.83-6.48-.15-13.61,7.39-13.85,8.46-.27,16.93-.09,25.4-.1h4.69l-14.54-19c-11.83-15.48-23.7-30.93-35.46-46.47a6.61,6.61,0,0,0-6-3c-16.94.13-33.87.07-50.81.07h-4.63V104.1c1.44-.07,2.75-.19,4-.19,20.16,0,40.33,0,60.49-.07a6.67,6.67,0,0,1,6,3c20.36,26.72,40.86,53.33,61.18,80.09,2.25,3,4.49,4.17,8.29,4.17q90.13-.2,180.26-.08a22.73,22.73,0,0,1,5.61.37c6.4,1.65,8.52,9.12,4.13,14.94-7.61,10.08-15.44,20-23.11,30q-46.66,61-93.23,122.07a10.39,10.39,0,0,0-2.22,5.74c-.13,33.47-.1,66.94-.08,100.41C395.64,465.6,395.8,466.64,395.92,468.09Z" transform="translate(-184.28 -103.84)" style="fill:#c4a963"/><path d="M510.09,242.42c6.29-8.22,12.6-16.37,18.79-24.61,10.73-14.29,7.88-32.17-6.57-41.42-5-3.23-10.67-4.2-16.55-4.19-8.87,0-17.74,0-26.61,0h-4.38c2.09-17.3,18.81-41.7,47-47.93A63.15,63.15,0,0,1,591,156c13,23.95,8.11,55.29-11.06,74C559,250.62,528.33,251.88,510.09,242.42Z" transform="translate(-184.28 -103.84)" style="fill:#c4a963"/></svg>