<svg id="Layer_1" data-name="Layer 1" xmlns="http://www.w3.org/2000/svg" viewBox="0 0 192.46 216.47"><title>cocktailMixer</title><path d="M75.51-38.52" transform="translate(-53.61 -64.09)" style="fill:none;stroke:#fff;stroke-miterlimit:10"/><path d="M271.82,503.95" transform="translate(-53.61 -64.09)" style="fill:none"/><path d="M53.65,142.11c15.71,7.41,32.07,9.93,48.84,9.92s33-2.63,48.31-9.86c0,5.77.23,11.19,0,16.6-1.26,24.85-2.77,49.69-4,74.54-.72,14.81-1,29.64-1.52,44.46,0,.86,0,1.72,0,2.75H59.09c0-5.52.23-11,0-16.47-1.07-21.46-2.43-42.9-3.42-64.35-.85-18.5-1.34-37-2-55.51C53.63,143.68,53.65,143.18,53.65,142.11Zm8.71,13.39,6.48,116h66.93l6.38-116A145.56,145.56,0,0,1,62.35,155.5Z" transform="translate(-53.61 -64.09)"/><path d="M174,280.56l-8.28-90h80.39l-8.28,90Zm3.24-63.69,5,54.6h47.3l5.27-57.33c-7,.87-13.57,1.67-20.16,2.51C202.31,218.24,190,220.1,177.2,216.87Zm58.94-17.16h-60.5a30.61,30.61,0,0,1,.4,4.66c-.13,2.08.85,2.87,2.69,3.44,6.85,2.14,13.85,2.11,20.84,1.42,9.48-.95,18.93-2.25,28.4-3.37,2.55-.3,5.11-.49,7.64-.72Z" transform="translate(-53.61 -64.09)"/><path d="M145.37,100.76c-.84,9,2.87,16.9,4.39,25.18.62,3.4.81,6.88,1.24,10.31.19,1.52-.38,2.28-1.85,2.87A110,110,0,0,1,123.22,146c-18.89,2.54-37.65,2-56.14-2.94-4-1.08-7.91-2.74-11.89-4.05a2,2,0,0,1-1.55-2.4c.72-4.91,1.21-9.87,2.19-14.73,1.33-6.57,3.8-12.91,3.59-19.77,0-.51.77-1.32,1.34-1.52,5.38-1.88,10.77-3.75,16.22-5.42a2.34,2.34,0,0,0,2-2.45c.79-8.86,1.71-17.7,2.59-26.55.06-.64.19-1.28.31-2h40.83c.42,4.17.85,8.37,1.26,12.59.5,5.25,1,10.51,1.43,15.77.12,1.62.72,2.26,2.32,2.73C133.62,96.9,139.43,98.86,145.37,100.76Zm-3.55,31.68c-.57-2.67-1-4.85-1.5-7-1.26-5.63-2.49-11.27-3.88-16.87a3.29,3.29,0,0,0-1.9-1.86,96.47,96.47,0,0,0-26-5.5,95,95,0,0,0-39.17,5.71,2.31,2.31,0,0,0-1.23,1.43c-1.17,4.84-2.24,9.7-3.34,14.56-.69,3.07-1.37,6.14-2.13,9.51A134.39,134.39,0,0,0,141.82,132.45ZM89.65,72.38,88,92.32h28.64L114.8,72.38Z" transform="translate(-53.61 -64.09)"/><path d="M76.06,264.08l-5.75-98.77a163.22,163.22,0,0,0,31.9,3.36,159.33,159.33,0,0,0,32-3.38l-5.76,98.8Z" transform="translate(-53.61 -64.09)"/><path d="M226.4,222.78,222.63,264H189.07l-3.47-38.11C199.35,226.93,212.64,224.18,226.4,222.78Z" transform="translate(-53.61 -64.09)"/></svg>