<svg id="Layer_1" data-name="Layer 1" xmlns="http://www.w3.org/2000/svg" viewBox="0 0 419.85 331.92"><title>createAccount</title><path d="M302.05,490.31c.65-20.8-.45-41.5,2.34-61.65,4.38-31.59,23.2-53.31,52.65-65.55,10.68-4.44,22-5.94,33.52-5.95q64.47,0,128.94,0c18.48,0,35.65,4.72,50.76,15.61,22.56,16.27,34.86,38.5,36.18,66.21.81,17,.15,34,.15,51.31Z" transform="translate(-187 -158.39)" style="fill:#fff"/><path d="M454.93,158.4a85.25,85.25,0,1,1-85.43,84.8A85.22,85.22,0,0,1,454.93,158.4Z" transform="translate(-187 -158.39)" style="fill:#fff"/><path d="M277.13,286.71h52.28c.12,1.35.29,2.42.29,3.48,0,10.18-.11,20.36.08,30.54.06,3.26-1.19,3.92-4.13,3.9-14.77-.11-29.55-.05-44.32-.05H277.2c0,1.6,0,2.92,0,4.24,0,14.9-.08,29.8.07,44.7,0,3-1,3.83-3.84,3.8-10.06-.12-20.11-.16-30.17,0-3.25.06-3.91-1.23-3.89-4.16.12-14.65.05-29.3.05-44,0-1.35,0-2.71,0-4.63h-4.13c-14.77,0-29.55-.08-44.32.06-3.1,0-4-.89-4-4,.18-11.14.07-22.29.07-33.9h52.35c0-1.8,0-3.12,0-4.45,0-14.65.08-29.3-.06-44,0-3.1.89-4.05,4-4,10.05.17,20.11.06,30.17.08,1.09,0,2.17.16,3.62.27Z" transform="translate(-187 -158.39)" style="fill:#fff"/></svg>