<svg id="Capa_1" data-name="Capa 1" xmlns="http://www.w3.org/2000/svg" viewBox="0 0 722.6 384.98"><title>logo negro</title><path d="M39,346.75c-1.88-6.23,2.45-12.09,12-14.74,8.41-2.33,15.89-1.09,18,6.86,2.62,9.95,9.82,11.85,19.82,9.37s15.51-7.62,13-17.94c-3.85-16-21.56-20.41-35.29-24.79-18.22-5.83-42.76-12-48.51-33.2-7.27-26.8,18.83-43,41.63-48.22,20.28-4.68,51.82-4.86,57.31,20.55,1.51,7-3.65,11.85-13.78,14.07-10.74,2.36-17-1-18.41-7-1.73-7.42-9-10.41-19.88-7.72s-16.21,8.33-13.6,17.67c4.08,14.57,23.95,18.79,36.37,23,19.33,6.48,41.41,14.35,45.77,37.06,5,26.19-17,40.57-39.39,46.47C72.43,373.83,46.28,370.9,39,346.75Z" transform="translate(-16.78 -36.66)"/><path d="M156.37,342.09q-11.53-60.82-23.05-121.65c-1.23-6.47,5.21-12.52,15.43-14.32s18.32,1.71,19.37,8.21q3.88,24,7.76,47.91,18-2.91,36.08-5.31-3.18-24.06-6.38-48.12c-.86-6.52,5.89-12.21,16.17-13.43s18.16,2.72,18.85,9.27l13,123.13c.69,6.55-5.4,11.93-14.54,13s-16.33-2.72-17.2-9.24q-3.58-27.12-7.19-54.24-17.78,2.35-35.5,5.23,4.38,27,8.75,54c1.05,6.5-4.74,12.21-13.83,13.81S157.59,348.56,156.37,342.09Z" transform="translate(-16.78 -36.66)"/><path d="M270.66,326.31a16.92,16.92,0,0,1,.24-3.74q8.67-59.67,19.72-118.94c2.75-11.85,16.05-16.46,26.7-17s24.09,2.93,27.84,14.44q16.5,58,30.64,116.6a13,13,0,0,1,.3,3.29c0,7-5.14,11.5-14.33,11.64-9.48.13-15-4-16.69-10.55-1.72-7.52-2.59-11.28-4.36-18.8v.41q-19.28.62-38.53,1.83c-1.05,7.65-1.57,11.48-2.57,19.13-1,7.28-6.19,10.92-14.21,11.55C278,336.79,271.35,333.89,270.66,326.31Zm65.57-42q-9.14-36.36-19-72.5l-.63,0q-6.25,36.93-11.75,74Q320.52,284.82,336.23,284.29Z" transform="translate(-16.78 -36.66)"/><path d="M393.5,321.28,395,197.47c.08-6.58,7.57-11.24,17.89-11s17.57,5.3,17.31,11.87q-1,25.29-2,50.56,21.69-26.86,44.48-52.75c2.8-3.1,6.93-6.33,15.62-5.61,9.34.77,15.07,5.46,14.56,10.78a10.35,10.35,0,0,1-3.12,5.91q-17.58,17.55-34.42,35.82,14.86,38.63,28.05,77.82a14.3,14.3,0,0,1,.83,6.48c-.73,7.58-8.76,9.9-16.21,9.28-8.6-.72-12.93-4.32-15.61-11.72-6.85-18.91-14.11-37.64-21.59-56.3-5.7,7-8.5,10.59-14,17.7q-.69,17.88-1.39,35.76c-.26,6.58-7,11-16.24,10.8S393.42,327.86,393.5,321.28Z" transform="translate(-16.78 -36.66)"/><path d="M513.5,327.53q6.82-60.28,13.64-120.58c.74-6.54,8.65-10.42,18.91-9.13q32.25,4.25,64.27,9.74c9.24,1.64,15.12,7.16,14,13s-8.49,8.85-17.59,7.24q-22.93-3.94-45.93-7.28l-5.28,37.69q16.38,2.37,32.7,5c8.85,1.47,14.48,6.89,13.43,12.76s-8.11,9-16.82,7.52q-16.07-2.59-32.17-4.93-3.06,21.88-6.14,43.79,21.21,3.08,42.32,6.7c8.39,1.48,13.64,6.89,12.54,12.75s-7.87,9-16.12,7.5q-28.59-4.89-57.31-8.68C518.82,339.5,512.76,334.07,513.5,327.53Z" transform="translate(-16.78 -36.66)"/><path d="M617.64,345.24q12.24-60.06,24.46-120.12c1.44-7.05,8.62-9.82,19.71-7.41q17.13,3.73,34.15,7.91c22.13,5.5,49.92,17.86,42.06,45.48l-2.45,8.5c-3.08,13.95-15.75,21.22-29.24,21.31l-.11.4c13.63,6.93,18.41,21.05,13.24,35.29l-6.22,21.54c-1.08,3.76-1.4,5.85-1.2,8.43a13.73,13.73,0,0,1-.43,5.66c-1.37,4.74-7.51,5.58-16.63,3.19-11-2.87-17.19-10.47-14-22.07l6.92-26.68c3.87-12.7-4.16-19.64-16-22.23-4.5-1.09-6.75-1.62-11.26-2.67q-5.82,25.16-11.66,50.3c-1.62,7-8.18,9.68-18.06,7.53S616.21,352.29,617.64,345.24Zm59.7-60.65c9.32,2.89,21.33,1.65,23.66-9.76,1.11-4.3,1.67-6.45,2.79-10.75,2.58-10-1.55-15.75-13.66-18.71-6.21-1.52-9.32-2.27-15.55-3.71q-4.65,20-9.29,40.08C670.12,282.85,672.53,283.43,677.34,284.59Z" transform="translate(-16.78 -36.66)"/><path d="M471,128.5h-.55l-.34.08q-6.35,6.84-8.56,8.89a93.1,93.1,0,0,1-10.82,9.08q-8.29,5.66-12.15,5.75a26.59,26.59,0,0,1-1.14-6.84,45.76,45.76,0,0,1,1.6-12.14c1.76-.91,3.23-1.71,4.4-2.38a101.86,101.86,0,0,0,10.52-7.77,142.31,142.31,0,0,0,12.73-12.09q11.14-12.6,11-18.5V92c-.06-2.2-1.45-4.63-4.18-7.31q-6.12-5.05-12.5-4.89-8.31.23-18.29,9.9a86.17,86.17,0,0,0-7.8,9.28,110.59,110.59,0,0,0-8.53,15,61.61,61.61,0,0,0-4.83,18.24q-2.26,2.48-6.53,6.87-8.7,8.41-13.77,11.77a53.62,53.62,0,0,1,1.78-5.34q1.68-4,15.21-32.63,3.68-6.76,3.56-11c-.06-2.29-1.12-4.87-3.16-7.75q-4.9-6.12-11.77-5.94-7.29.19-20.14,10.16h-.07l20.77-43.45c2.18-.13,4.36-.24,6.51-.29q11.53-.32,24.69.64c.32,0,.48,0,.48-.08,1.14,0,1.81-.78,2-2.25v-.21A5.31,5.31,0,0,0,440,50a13.86,13.86,0,0,0-7.92-5.9,210.5,210.5,0,0,0-23.66-.79c-.41-.55-.88-1.11-1.42-1.71q-5.29-5-9.68-4.89h-.07a3.15,3.15,0,0,0-2.58,1.17l-3,6.35a254.21,254.21,0,0,0-26.93,3.93,11.65,11.65,0,0,0-3.8-.79,3.15,3.15,0,0,0-3.17,2.28q-16,3.87-28.24,8A349.36,349.36,0,0,0,281,78.23c-1.64.55-2.44,1.4-2.41,2.54v.48c0,1.33,1,3,3,5q4.08,3.6,7,3.52h.55a8.73,8.73,0,0,0,3.12-1.25,16.85,16.85,0,0,1,2.7.75,23.39,23.39,0,0,1,11.62,8.07q6.78,9.38,7.14,22.9l0,1.45q.36,13.59-5.75,31.69-.63,2.15-6.95,15.1-1.77,3.48-1.73,4.72a8.8,8.8,0,0,0,1,3.2,18.16,18.16,0,0,0,4.6,4.89c2.89,2,5.28,3,7.15,2.9a4,4,0,0,0,2.66-1q.39-.57,6.78-13.92,27.33-57.5,28.11-59,23.37-49.08,24.21-51,5.83-1.17,11.54-2.05l-21.79,45.62q-20.11,42.24-21.87,46-2,3.56-1.93,4.86.06,2.27,3.11,5.83,5.51,5.28,10,5.16a3.54,3.54,0,0,0,2.59-1.1q19.59-40.86,21.15-44.4A114.67,114.67,0,0,1,386.13,109q11.25-10.53,18.95-13.56s0,.07.07.07L404.84,97q-2.07,4.59-12.22,26.16-8.49,16.92-8.3,23.86a13.81,13.81,0,0,0,2.17,6.81q5.13,6.67,10.28,6.53H397a7.15,7.15,0,0,0,1.85-.26q5.94-1.4,18-12.37c1.48-1.35,3.16-3,5-4.89a26.92,26.92,0,0,0,2.11,6.35q5.78,10.31,13.87,10.08l.83,0q4.88-.13,13.88-5.11a67.76,67.76,0,0,0,9-6.56A126,126,0,0,0,473.9,135.7c1.43-1.45,2.14-2.37,2.13-2.73a3.66,3.66,0,0,0-.94-1.63Q473,128.45,471,128.5ZM445.46,118a111.28,111.28,0,0,1,6.87-10.43,66.11,66.11,0,0,1,7.55-8,27.55,27.55,0,0,1,9.61-5.62l.14.07a44.38,44.38,0,0,1-5.08,7.76,120.29,120.29,0,0,1-8.35,9.16,151.94,151.94,0,0,1-12.63,11h-.13C444.31,120.16,445,118.86,445.46,118ZM322,124.83h-.07v-.07a52.75,52.75,0,0,0-3.65-18.32A41.42,41.42,0,0,0,299,85.18v-.07l7.46-3.5a340.35,340.35,0,0,1,43.82-16.49h.07Z" transform="translate(-16.78 -36.66)"/><path d="M233.58,401.28a8.81,8.81,0,0,1-.37,4.2c-1,3.08-3.24,5.87-6.83,8.4a28.48,28.48,0,0,1-11.68,4.9c-6.39,1.12-11.12-.2-14.24-4-3.54,4.2-6.17,6.48-7.94,6.84a2,2,0,0,1-.89,0q-2-.58-2.64-3.72c-.42-2.09-.05-4.83,1.14-8.23s2.43-5.5,3.68-6.32a5,5,0,0,1,1.37-.57c1.19-.23,2.28.55,3.25,2.33,1.17,2.13,1.76,3.2,2.92,5.34,1-1.45,2.2-3.7,3.77-6.77,1.67-3.25,2.52-4.88,4.24-8.12,5.31-9.64,9.12-15,11.14-16.14a6.9,6.9,0,0,1,2.27-.79,3.86,3.86,0,0,1,2.07.16,1.41,1.41,0,0,1,1,1.07c.11.72-.44,1.23-1.64,1.54-1.15.88-3.25,3.23-6.24,7.09a75.09,75.09,0,0,0-5.22,7.28,98.38,98.38,0,0,1-10.2,16.55c3.38,4.32,7.51,6,12.45,5.17a17.32,17.32,0,0,0,8.47-4.28,19.06,19.06,0,0,0,5.59-7.89,7.9,7.9,0,0,0,.38-4,6,6,0,0,0-2.41-3.81,10.32,10.32,0,0,0-4.89-2.12c-.85,0-2.2.06-4.06.15s-2.83-.13-2.92-.64a.75.75,0,0,1,.16-.58,2.49,2.49,0,0,1,1.79-1.16,4,4,0,0,1,1.38,0c.46.08.82.15,1.08.18s.61.14.93.16a11.54,11.54,0,0,0,2.38-.27,22.06,22.06,0,0,0,7.29-2.43c2.71-1.51,4.32-3.4,4.79-5.66a11.37,11.37,0,0,0,.2-3.87c-.4-2.75-2.13-4.59-5.15-5.52-2.62-.81-6.09-.9-10.37-.21a42.57,42.57,0,0,0-17.42,6.66,26,26,0,0,0-6.66,6.7c-2,2.79-2.77,5-2.45,6.67a4.37,4.37,0,0,0,1.48,2.67,7.5,7.5,0,0,0,1.53.93c.23.08.11.17-.34.25q-4-.09-4.8-4.17c-.53-2.72.42-5.59,2.89-8.55a28.27,28.27,0,0,1,6.56-5.71,50,50,0,0,1,18.87-6.8c5.21-.84,9.5-.72,12.78.21,3.79,1.08,6,3.22,6.43,6.44a10.36,10.36,0,0,1-.26,4c-.54,2.52-2.56,4.67-6,6.44a30,30,0,0,1-8.62,2.82,9.28,9.28,0,0,1,6.59,1.61A8,8,0,0,1,233.58,401.28Zm-39.78,4.61a1.34,1.34,0,0,0-.28.18c-2.22,4.82-3,8.52-2.52,11.08a5.53,5.53,0,0,0,1.37,2.74.66.66,0,0,0,.66.18c1.3-.26,3.42-2.55,6.44-6.85l-.23-.2Q195.3,405.6,193.8,405.89Z" transform="translate(-16.78 -36.66)"/><path d="M255.42,410.09a7.52,7.52,0,0,1-1.3.23,3.3,3.3,0,0,1-2.12-.51,2.45,2.45,0,0,1-1.28-1.87,9.18,9.18,0,0,1,.1-2.78c.17-1,.29-1.82.34-2.36-4,6-7.28,9.16-9.92,9.54-1.67.24-2.73-.63-3.2-2.64q0-.24-.06-.42c-.25-1.71.47-4.18,2.19-7.39a42.35,42.35,0,0,0-3.11,4.11.8.8,0,0,1-.58.33c-.16,0-.26-.06-.29-.26a2.22,2.22,0,0,1,.4-1.1c2.82-4.37,4.25-6.55,7.14-10.9a4.59,4.59,0,0,1,3.06-2.25c1.12-.15,1.73.13,1.82.85a1.09,1.09,0,0,1-.26.83,46.72,46.72,0,0,0-5.22,8.21c-2,3.78-2.87,6.48-2.63,8.12.1.71.4,1,.89,1,1.71-.25,4-2.26,6.78-6,1-1.28,2.79-4,5.44-8.24s4.51-6.38,5.5-6.5c1.5-.19,2.32.28,2.45,1.4.05.4-.69,1.66-2.19,3.79-2,3.05-3.52,5.52-4.53,7.42a8.11,8.11,0,0,0-1.3,4.45c.14,1.08.52,1.58,1.13,1.5a2.61,2.61,0,0,0,1-.37c2.66-1.56,5.68-4.77,9.12-9.63a1,1,0,0,1,.69-.51c.25,0,.39.09.42.35a1.4,1.4,0,0,1-.33.92,65.24,65.24,0,0,1-5.5,6.77Q256.84,409.61,255.42,410.09Z" transform="translate(-16.78 -36.66)"/><path d="M266.52,409q-3.12.36-3.59-3.58c-.26-2.16.58-5.29,2.58-9.39s3.78-6.28,5.25-6.46a2.68,2.68,0,0,1,1.46.33c.56.26.85.55.88.87-.17.31-.39.64-.64,1l-.82,1.22c-.28.43-.68,1.05-1.17,1.86L269,397.2c-2.66,4.23-3.87,7.08-3.7,8.54s.76,2.13,1.79,2a7.54,7.54,0,0,0,3.33-1.78,32.48,32.48,0,0,0,7.46-7.73c.64-1,1.1-1.5,1.37-1.53s.42.12.45.44-.38,1-1.22,2.06l-2,2.52q-.74.93-1,1.23c-.19.2-.53.58-1,1.14a15.92,15.92,0,0,1-1.14,1.19c-.27.23-.65.58-1.13,1a8.14,8.14,0,0,1-1.31,1l-1.34.79A8,8,0,0,1,266.52,409Zm10.29-26a1.61,1.61,0,0,1,1,1.26,1.68,1.68,0,0,1-.65,1.44,2.83,2.83,0,0,1-1.66.74,2.62,2.62,0,0,1-1.79-.47,2,2,0,0,1-.95-1.42c-.12-1.12.62-1.77,2.21-1.93A3.14,3.14,0,0,1,276.81,383Z" transform="translate(-16.78 -36.66)"/><path d="M280.16,403.84c.12,1.2.86,1.73,2.21,1.59s3-1,5-2.6a30.35,30.35,0,0,0,5.71-6.28c.44-.68.81-1,1.1-1.06s.44.08.46.32-.74,1.36-2.26,3.35c-3.73,4.77-6.92,7.3-9.65,7.57a6.23,6.23,0,0,1-3.53-.58,3.24,3.24,0,0,1-1.71-2.74,12.1,12.1,0,0,1,.58-4.64,73.37,73.37,0,0,1,4.75-10.84c4.14-8.09,7.33-12.2,9.4-12.38a2.3,2.3,0,0,1,1.33.34,1.43,1.43,0,0,1,.81.93c-.86,1.33-2.53,3.87-4.95,7.64s-4.06,6.48-4.95,8.13l-2,3.68c-.44.81-.76,1.44-1,1.88s-.44,1-.7,1.74A8.53,8.53,0,0,0,280.16,403.84Z" transform="translate(-16.78 -36.66)"/><path d="M312,385.85c4.19-7.62,7.3-11.46,9.15-11.57a4.07,4.07,0,0,1,1.25.21c.54.15.82.41.84.77a1.59,1.59,0,0,1-.27.8c-3.17,4.12-5.47,7.22-7,9.29-4.56,6.29-6.92,10.78-7.23,13.42a7.48,7.48,0,0,0-.07,1.7c.13,1.8.95,2.65,2.47,2.55,3-.21,6.79-3.21,11.41-9a2.33,2.33,0,0,1,1-.75q.44-.12.45.18a1.22,1.22,0,0,1-.33.75c-4.5,5.84-8.51,9.22-12.14,10.11a4,4,0,0,1-.86.12,3.33,3.33,0,0,1-2.95-1.09,4.68,4.68,0,0,1-1.15-2.73,11.86,11.86,0,0,1,.41-3.78c-1.87,2.09-2.8,3.14-4.64,5.25-2.1,2.22-3.78,3.39-5.06,3.49a5.2,5.2,0,0,1-3.31-.74,3.85,3.85,0,0,1-1.82-3c-.26-2.93,1.52-6.62,5.43-11s7.67-6.75,11.23-7a2.89,2.89,0,0,1,2.5.74A4.54,4.54,0,0,1,312,385.85Zm-17.17,16.43c.12,1.44.7,2.12,1.72,2,1.76-.15,4.48-2.76,8.25-7.8.68-.9,2.91-4.24,6.8-10a1.61,1.61,0,0,0-1.55-.62c-2.58.17-5.86,2.31-9.75,6.44S294.57,399.8,294.78,402.28Z" transform="translate(-16.78 -36.66)"/><path d="M323.88,404.1q-3.13.18-3.37-3.79c-.12-2.17.91-5.25,3.15-9.22s4.16-6,5.64-6.12a2.76,2.76,0,0,1,1.43.42c.54.3.81.61.83.93-.2.29-.44.61-.71,1s-.57.74-.89,1.16-.74,1-1.29,1.78l-1.57,2.22c-2.91,4.06-4.29,6.83-4.21,8.3s.63,2.17,1.66,2.11a7.45,7.45,0,0,0,3.43-1.57,32.16,32.16,0,0,0,7.9-7.25c.71-1,1.2-1.44,1.47-1.45s.41.15.42.47-.44,1-1.35,2l-2.16,2.38c-.53.59-.9,1-1.09,1.17l-1.1,1.07c-.53.53-.94.9-1.21,1.12s-.68.53-1.19,1a7.5,7.5,0,0,1-1.37.94l-1.38.71A7.87,7.87,0,0,1,323.88,404.1Zm11.85-25.3a1.54,1.54,0,0,1,.17,2.71,2.92,2.92,0,0,1-1.7.65,2.68,2.68,0,0,1-1.76-.59,1.94,1.94,0,0,1-.85-1.47c0-1.13.72-1.73,2.32-1.8A3.12,3.12,0,0,1,335.73,378.8Z" transform="translate(-16.78 -36.66)"/><path d="M344.8,383.45c1.13,0,1.71.37,1.73,1.22a1.45,1.45,0,0,1-.16.72c-3.61,5.14-5.69,9-6.34,11.63,9.26-9.72,15.36-14.33,17.24-14.55.19,0,.4-.06.57-.07,1.16,0,1.76.48,1.78,1.48a1.7,1.7,0,0,1-.12.61,30.36,30.36,0,0,1-2.44,3.3,64.33,64.33,0,0,0-4.51,6.13,9.45,9.45,0,0,0-1.77,4.87c0,1.29.34,1.93.91,1.91,1.81,0,4.88-2.55,9.32-7.49a4.65,4.65,0,0,0,.42-.55c.61-.73,1-1.09,1.11-1.1s.19.2.19.6a2.67,2.67,0,0,1-.85,1.58c-5.05,5.75-8.57,8.67-10.7,8.72s-3-1-3.1-3.17a15.19,15.19,0,0,1,2.27-7.55c1.53-2.55,2.3-3.82,3.85-6.37a45.92,45.92,0,0,0-7.38,6.8q-3.19,3.69-5.75,7.17c-1.7,2.31-2.69,3.48-3,3.49a1.67,1.67,0,0,1-1.47-.7,3.16,3.16,0,0,1-.6-1.84,8,8,0,0,1,.68-3q.72-1.9,1.86-4.6c-1.43,1.57-2.14,2.36-3.56,3.95-.87.92-1.42,1.39-1.64,1.4s-.35-.12-.36-.38a1.36,1.36,0,0,1,.45-.9,51.07,51.07,0,0,0,3.79-4.44c1-1.39,3.14-4.12,6.4-8.09A1.56,1.56,0,0,1,344.8,383.45Z" transform="translate(-16.78 -36.66)"/><path d="M380.93,383.66l.88-.18a1.71,1.71,0,0,1,1.28.49,1.36,1.36,0,0,1,.46.76,2.7,2.7,0,0,1-.07.6,29.53,29.53,0,0,1-1.84,3c-1.49,2.37-2.68,4.51-3.63,6.19a115.21,115.21,0,0,1-7.63,12.5c-3.72,4.93-7.22,7.42-10.58,7.48a4,4,0,0,1-3.09-1.43,4.78,4.78,0,0,1-1.44-3.26c0-.42.29-.73.54-.73s.23.13.31.41a4.56,4.56,0,0,0,1.21,2.39,2.43,2.43,0,0,0,1.71.82c2.31,0,4.76-1.58,7.38-4.63a53.54,53.54,0,0,0,5.77-8.84l3.09-6c-1.86,1.84-2.79,2.75-4.63,4.6-2.95,2.79-4.95,4.2-6,4.21a5.19,5.19,0,0,1-3.12-1.05,3.78,3.78,0,0,1-1.71-3.17c0-2.94,2-6.48,6.23-10.58s8.15-6.14,11.67-6.13c1.42,0,2.34.45,2.75,1.34.13.32.23.59.31.81S380.88,383.66,380.93,383.66Zm-18.55,14.9c0,1.45.54,2.17,1.57,2.16,2.38,0,5.58-2.61,9.72-7.73,2.62-3.53,3.95-5.29,6.63-8.8a1.55,1.55,0,0,0-1.56-.85c-2.6,0-6,1.91-10.19,5.78S362.35,396.15,362.38,398.56Z" transform="translate(-16.78 -36.66)"/><path d="M399.84,403.16a4,4,0,0,1-1.23-.22c-2.6-.79-3.88-2.26-3.83-4.43.06-2.82,1.93-6,5.69-9.64s7.13-5.34,10.06-5.23a3.56,3.56,0,0,1,2.32.84,2.53,2.53,0,0,1,.82,2.09,5.42,5.42,0,0,1-.92,2.68,2.64,2.64,0,0,1-2.48,1.32q-1.62-.06-1.59-1a4.53,4.53,0,0,1,.92-2,16.48,16.48,0,0,0,.9-1.42c0-.06-.06-.09-.19-.1-1.17.08-2.8.83-4.86,2.25a19.67,19.67,0,0,0-4.25,3.62c-1,1.34-1.51,2-2.51,3.37a6.79,6.79,0,0,0-1,2.27,10.24,10.24,0,0,0-.32,2,2.33,2.33,0,0,0,.73,1.53,2.78,2.78,0,0,0,2.16.9c2.05.06,4.62-1,7.75-3.29a41,41,0,0,0,7.32-6.44.9.9,0,0,1,.76-.33c.29,0,.43.1.42.26a1,1,0,0,1-.33.58,38.07,38.07,0,0,1-8.44,7.37C404.56,402.19,401.92,403.21,399.84,403.16Z" transform="translate(-16.78 -36.66)"/><path d="M429.34,390.81c-.08,1.41-1.62,3.67-4.55,6.82-3.46,3.72-6.31,5.54-8.6,5.44l-1,0a2.92,2.92,0,0,1-2.45-1.73,4.84,4.84,0,0,1-.64-2.57c.1-2.41,2-5.73,5.86-9.92s6.92-6.22,9.18-6.1,3.14,1.27,3,3.44a9.73,9.73,0,0,1-.44,2.15c0,.12.43.2,1.18.25a9.06,9.06,0,0,0,3.5-.94c-.09.68-1.79,1.56-5.1,2.66A2.31,2.31,0,0,1,429.34,390.81Zm-3.88-3.36c-1.41-.07-3.51,1.43-6.25,4.53s-4.13,5.41-4.19,6.93.39,2.32,1.38,2.36c1.76.08,4.06-1.39,6.94-4.38s4.39-5.16,4.46-6.53A9,9,0,0,1,425.46,387.45Z" transform="translate(-16.78 -36.66)"/><path d="M434.44,404.72a3.83,3.83,0,0,1-1.22-.25c-2.57-.89-3.79-2.41-3.67-4.58.17-2.81,2.16-6,6.05-9.42s7.33-5.07,10.25-4.86a3.6,3.6,0,0,1,2.29.94,2.51,2.51,0,0,1,.74,2.11,5.46,5.46,0,0,1-1,2.65,2.61,2.61,0,0,1-2.53,1.22c-1.08-.08-1.59-.43-1.54-1.08a4.53,4.53,0,0,1,1-1.95,11.38,11.38,0,0,0,1-1.38c0-.06-.05-.1-.18-.11-1.17,0-2.82.72-4.94,2.07a20.16,20.16,0,0,0-4.39,3.45l-2.63,3.28a6.86,6.86,0,0,0-1,2.23,10.89,10.89,0,0,0-.4,2,2.45,2.45,0,0,0,.68,1.56,2.81,2.81,0,0,0,2.12,1c2.05.13,4.66-.88,7.87-3a41.36,41.36,0,0,0,7.56-6.17.9.9,0,0,1,.77-.3q.44,0,.42.27a1.16,1.16,0,0,1-.36.58,38.36,38.36,0,0,1-8.71,7.05C439.2,403.94,436.52,404.86,434.44,404.72Z" transform="translate(-16.78 -36.66)"/><path d="M459.68,406.62c-3.22-.29-5.73-3-7.58-8.23-.65.8-2.14,3.06-4.45,6.79-1.43-.68-2.11-1.49-2-2.46.13-1.72,3.11-6.27,9.12-13.55s10.19-11.47,12.35-12.64a1.86,1.86,0,0,1,1-.08c1.3.12,1.92.51,1.86,1.15,0,.32-1.68,2-4.9,5a47.31,47.31,0,0,0-5.4,5.5c3.95-1.54,7.07-2.19,9.32-2a4.57,4.57,0,0,1,3.17,1.84,3.85,3.85,0,0,1,1,2.71c0,.12,0,.24,0,.36-.57,2.25-2.46,3.94-5.54,5.14a15.21,15.21,0,0,1-6.86,1.23,8.68,8.68,0,0,1-4.26-1.17.63.63,0,0,0-.6.13.58.58,0,0,0-.15.6q1.1,7.59,5.06,8c1.39.13,3.25-.47,5.59-1.77a39.74,39.74,0,0,0,7.53-5.73,1.21,1.21,0,0,1,.82-.33.29.29,0,0,1,.3.36,1.84,1.84,0,0,1-.53.89,44.14,44.14,0,0,1-6.92,5.59C464.39,405.91,461.76,406.81,459.68,406.62Zm10.67-17.52a1.36,1.36,0,0,0-.47-1,1.78,1.78,0,0,0-1.14-.6c-2.25-.22-5,.42-8.34,1.94s-5.39,3.4-6.28,5.63c.37,0,1.41.24,3,.43,1.78.23,4.36-.37,7.51-1.55C468.22,392.57,470.15,391,470.35,389.1Z" transform="translate(-16.78 -36.66)"/><path d="M489.62,389.54c3.59.38,5.39.59,9,1,.11.1.17.16.16.2,0,.36-2.7.51-7.94.51s-8.08.08-8.51.15a34.07,34.07,0,0,0-5,5.61q-3.71,4.73-3.94,7.07c-.16,1.48.8,2.33,2.89,2.55a11.69,11.69,0,0,0,3.95-.47,24,24,0,0,0,3.88-1.25,40.62,40.62,0,0,0,8.13-5.28c.64-.48,1.07-.71,1.28-.69s.17.15.14.39-.4.68-1.11,1.32a29,29,0,0,1-7.94,5.29,18.57,18.57,0,0,1-9.45,1.85,5.51,5.51,0,0,1-3-1.14c-.74-.63-1-1.76-.86-3.4s1.14-3.81,2.93-6.52,3.16-4.7,4.1-6a7.74,7.74,0,0,1-1.51,0c-1.21-.13-1.76-.65-1.66-1.57.07-.68.62-1.11,1.65-1.28h.57l3.62.39,2.93-2.88c1.32-1.31,2.21-1.93,2.63-1.88a3.7,3.7,0,0,1,1.51.66c.59.39.86.81.8,1.25s-1.21,1.62-3.46,3.54C486.46,389.14,487.87,389.33,489.62,389.54Z" transform="translate(-16.78 -36.66)"/><path d="M512.4,394l.9-.05a2,2,0,0,1,1.22.73c.36.42.53.73.5.93a62.66,62.66,0,0,1-4.69,5.19c-3.08,3.28-4.69,5.64-4.89,7.08a.87.87,0,0,0,0,.36c.07.95.45,1.47,1.15,1.57,2.11.3,6.45-2.58,13.18-8.53a.58.58,0,0,1,.47-.18c.16,0,.22.19.18.49a2.16,2.16,0,0,1-.74,1.08c-6.31,6-10.74,8.81-13.46,8.43a3.13,3.13,0,0,1-1-.33,3.92,3.92,0,0,1-2.14-4.32,9,9,0,0,1,.53-2l-4.29,3.07c-2.69,1.75-4.55,2.57-5.63,2.43a5.38,5.38,0,0,1-3-1.41,3.77,3.77,0,0,1-1.26-3.38c.36-2.91,2.87-6.15,7.62-9.65s8.92-5,12.45-4.48a2.78,2.78,0,0,1,2.54,1.76c.08.34.14.62.19.86S512.36,394,512.4,394ZM492,406.18c-.18,1.44.24,2.22,1.25,2.35,2.37.3,5.9-1.82,10.71-6.31,3.09-3.13,4.65-4.69,7.79-7.79a1.75,1.75,0,0,0-1.49-1.07c-2.53-.36-6.17,1-10.83,4.26S492.26,403.71,492,406.18Z" transform="translate(-16.78 -36.66)"/><path d="M516.69,413.54q-3.11-.48-2.51-4.41c.32-2.15,2-4.94,5-8.37s5.32-5,6.79-4.82a2.73,2.73,0,0,1,1.31.7c.47.4.68.76.62,1.08-.25.24-.55.51-.89.8l-1.1,1c-.4.35-.94.84-1.64,1.48s-1.36,1.26-2,1.85c-3.68,3.37-5.61,5.8-5.84,7.25s.18,2.25,1.19,2.41a7.48,7.48,0,0,0,3.69-.83,32.36,32.36,0,0,0,9.25-5.46c.89-.79,1.46-1.16,1.73-1.12s.37.23.32.55-.63.87-1.73,1.66l-2.61,1.89c-.65.47-1.09.77-1.32.92l-1.29.82a14.41,14.41,0,0,1-1.42.84l-1.37.7a7.25,7.25,0,0,1-1.54.64l-1.49.41A8.11,8.11,0,0,1,516.69,413.54Zm16.84-22.32a1.64,1.64,0,0,1,.61,1.48,1.66,1.66,0,0,1-1,1.21,2.94,2.94,0,0,1-1.81.28,2.64,2.64,0,0,1-1.6-.94,2,2,0,0,1-.53-1.61c.18-1.11,1.06-1.54,2.64-1.28A3.16,3.16,0,0,1,533.53,391.22Z" transform="translate(-16.78 -36.66)"/><path d="M531.22,412.16q-.3,1.79,1.71,2.13c1.34.22,3.18-.17,5.54-1.18a30,30,0,0,0,7.18-4.53c.61-.54,1.06-.78,1.34-.73s.41.2.37.43-1.08,1.11-3.08,2.63c-4.87,3.6-8.62,5.19-11.33,4.73a6.18,6.18,0,0,1-3.25-1.5,3.24,3.24,0,0,1-.92-3.1,12.19,12.19,0,0,1,1.79-4.31,75,75,0,0,1,7.47-9.2c6.14-6.69,10.32-9.8,12.37-9.42a2.31,2.31,0,0,1,1.2.68,1.45,1.45,0,0,1,.53,1.11C551,391,548.67,393,545.33,396s-5.65,5.17-6.94,6.51-2.26,2.36-2.91,3-1.12,1.19-1.43,1.56-.7.87-1.14,1.49A8.61,8.61,0,0,0,531.22,412.16Z" transform="translate(-16.78 -36.66)"/><path d="M554.43,418.54a8.84,8.84,0,0,1-4.53.17,4.94,4.94,0,0,1-3.63-2.4,14.83,14.83,0,0,1-1.37-5.72c-.86.58-1.43.84-1.72.79s-.28-.19-.23-.47a1,1,0,0,1,.44-.66,84.07,84.07,0,0,1,8.17-5.72c3.63-2.21,5.46-3.31,9.13-5.48q3.94-2.35,4.58-2.22c1.32.27,1.88.88,1.69,1.82a2.17,2.17,0,0,1-.87,1.27c-.49.38-.85.67-1.09.89s-.48.42-.73.62q-1.49,1.6-3.78,7.12t-3.33,7.64c3.37.63,7.25-.8,11.72-4.26.49-.31.84-.44,1-.39s.28.19.23.44a1.94,1.94,0,0,1-.77.92,25.5,25.5,0,0,1-7.74,4.25,20.66,20.66,0,0,1-5,.53Zm-7-8.15a4.36,4.36,0,0,0,.76,3.55,4.49,4.49,0,0,0,2.83,1.86,5.05,5.05,0,0,0,2.73-.15c.82-.31,2.05-1.94,3.48-5a50.48,50.48,0,0,0,3.12-8.18l.65-2a56.72,56.72,0,0,0-8.47,4.87c-3.05,2.08-4.66,3.57-4.92,4.35C547.58,410,547.51,410.19,547.47,410.39Z" transform="translate(-16.78 -36.66)"/></svg>