<svg id="Layer_1" data-name="Layer 1" xmlns="http://www.w3.org/2000/svg" viewBox="0 0 186.97 219.49"><title>shot</title><path d="M101.74,123l22.59,184.38a7.8,7.8,0,0,0,6.27,6.72c17.13,3.3,71,11.77,124.37.09a7.81,7.81,0,0,0,6.08-6.68l22.54-184a7.8,7.8,0,0,0-6.24-8.61c-24.06-4.69-104.51-18-169.95-.38A7.78,7.78,0,0,0,101.74,123Z" transform="translate(-99.18 -103.16)" style="fill:none;stroke:#c4a963;stroke-miterlimit:10;stroke-width:5px"/><path d="M107.4,114.51s78.87,11.27,169.95.38" transform="translate(-99.18 -103.16)" style="fill:none;stroke:#c4a963;stroke-miterlimit:10;stroke-width:5px"/><path d="M117.2,132s25.38,3.9,69,3.25" transform="translate(-99.18 -103.16)" style="fill:none;stroke:#c4a963;stroke-miterlimit:10;stroke-width:5px"/><path d="M121.75,166.48,136.34,285a11.2,11.2,0,0,0,9.58,9.73,356.86,356.86,0,0,0,94.1-.26,9.66,9.66,0,0,0,8.24-8.4L263,166.48" transform="translate(-99.18 -103.16)" style="fill:none;stroke:#c4a963;stroke-miterlimit:10;stroke-width:5px"/><line x1="27.5" y1="103.33" x2="158.88" y2="103.33" style="fill:none;stroke:#c4a963;stroke-miterlimit:10;stroke-width:5px"/><path d="M139.39,291.41s.33-10.51,50-9.46c0,0,46.08-1.45,56.48,9.46" transform="translate(-99.18 -103.16)" style="fill:none;stroke:#c4a963;stroke-miterlimit:10;stroke-width:5px"/></svg>